<?xml version="1.0" encoding="UTF-8" standalone="no"?>
<!-- Generator: Adobe Illustrator 19.0.0, SVG Export Plug-In . SVG Version: 6.00 Build 0)  -->

<svg
   xmlns:dc="http://purl.org/dc/elements/1.1/"
   xmlns:cc="http://creativecommons.org/ns#"
   xmlns:rdf="http://www.w3.org/1999/02/22-rdf-syntax-ns#"
   xmlns:svg="http://www.w3.org/2000/svg"
   xmlns="http://www.w3.org/2000/svg"
   xmlns:sodipodi="http://sodipodi.sourceforge.net/DTD/sodipodi-0.dtd"
   xmlns:inkscape="http://www.inkscape.org/namespaces/inkscape"
   version="1.1"
   id="layer"
   x="0px"
   y="0px"
   viewBox="-153 -46 32 32"
   xml:space="preserve"
   sodipodi:docname="Tibber.svg"
   width="32"
   height="32"
   inkscape:version="0.92.5 (2060ec1f9f, 2020-04-08)"><metadata
   id="metadata29"><rdf:RDF><cc:Work
       rdf:about=""><dc:format>image/svg+xml</dc:format><dc:type
         rdf:resource="http://purl.org/dc/dcmitype/StillImage" /><dc:title></dc:title></cc:Work></rdf:RDF></metadata><defs
   id="defs27" /><sodipodi:namedview
   pagecolor="#ffffff"
   bordercolor="#666666"
   borderopacity="1"
   objecttolerance="10"
   gridtolerance="10"
   guidetolerance="10"
   inkscape:pageopacity="0"
   inkscape:pageshadow="2"
   inkscape:window-width="2461"
   inkscape:window-height="1138"
   id="namedview25"
   showgrid="false"
   inkscape:zoom="16.380584"
   inkscape:cx="48.345885"
   inkscape:cy="9.7829102"
   inkscape:window-x="0"
   inkscape:window-y="0"
   inkscape:window-maximized="0"
   inkscape:current-layer="layer" />
<style
   type="text/css"
   id="style2">
	.st0{fill:#23B8CC;}
</style>







<g
   id="g22"
   transform="matrix(0.16828183,0,0,0.16828183,-126.19631,-76.277503)">
	<path
   class="st0"
   d="m -121.2,294.3 h 70.4 c 2.4,0 4.5,-2 4.5,-4.4 0,-2.4 -2,-4.4 -4.5,-4.4 h -70.4 c -0.6,0 -0.9,-0.4 -1.1,-0.7 -0.1,-0.3 -0.2,-0.8 0.2,-1.3 l 75.7,-86.8 c 0.2,-0.2 0.6,-0.7 1.5,-0.3 0.8,0.5 0.6,1.2 0.6,1.4 l -11.5,38.9 c -0.7,2.4 0.7,4.8 3,5.5 2.3,0.7 4.8,-0.7 5.5,-3 l 11.5,-38.9 c 1.3,-4.6 -0.6,-9.3 -4.8,-11.6 -4.2,-2.3 -9.2,-1.4 -12.4,2.2 l -75.7,86.8 c -2.6,3 -3.2,7.1 -1.6,10.7 1.6,3.7 5.2,5.9 9.1,5.9 z"
   id="path18"
   inkscape:connector-curvature="0"
   style="fill:#23b8cc" />
	<path
   class="st0"
   d="m -7.2,255.7 h -70.4 c -2.4,0 -4.5,2 -4.5,4.4 0,2.4 2,4.4 4.5,4.4 h 70.4 c 0.6,0 0.9,0.4 1.1,0.7 0.1,0.3 0.2,0.8 -0.2,1.3 L -82,353.3 c -0.2,0.2 -0.6,0.7 -1.5,0.3 -0.8,-0.5 -0.6,-1.2 -0.6,-1.4 l 11.5,-38.9 c 0.7,-2.4 -0.7,-4.8 -3,-5.5 -2.3,-0.7 -4.8,0.7 -5.5,3 l -11.5,38.9 c -1.3,4.6 0.6,9.3 4.8,11.6 4.2,2.3 9.2,1.4 12.4,-2.2 L 0.3,272.3 c 2.6,-3 3.2,-7.1 1.6,-10.7 -1.6,-3.7 -5.1,-5.9 -9.1,-5.9 z"
   id="path20"
   inkscape:connector-curvature="0"
   style="fill:#23b8cc" />
</g>
</svg>