<?xml version="1.0" encoding="UTF-8" standalone="no"?>
<!-- Created with Inkscape (http://www.inkscape.org/) -->

<svg
   xmlns:dc="http://purl.org/dc/elements/1.1/"
   xmlns:cc="http://creativecommons.org/ns#"
   xmlns:rdf="http://www.w3.org/1999/02/22-rdf-syntax-ns#"
   xmlns:svg="http://www.w3.org/2000/svg"
   xmlns="http://www.w3.org/2000/svg"
   xmlns:sodipodi="http://sodipodi.sourceforge.net/DTD/sodipodi-0.dtd"
   xmlns:inkscape="http://www.inkscape.org/namespaces/inkscape"
   width="500"
   height="600"
   id="svg2"
   version="1.1"
   inkscape:version="0.48.3.1 r9886"
   sodipodi:docname="updown.svg">
  <defs
     id="defs4" />
  <sodipodi:namedview
     id="base"
     pagecolor="#ffffff"
     bordercolor="#666666"
     borderopacity="1.0"
     inkscape:pageopacity="0.0"
     inkscape:pageshadow="2"
     inkscape:zoom="0.98994949"
     inkscape:cx="128.52879"
     inkscape:cy="261.55392"
     inkscape:document-units="px"
     inkscape:current-layer="layer1"
     showgrid="false"
     inkscape:showpageshadow="false"
     inkscape:window-width="1431"
     inkscape:window-height="999"
     inkscape:window-x="0"
     inkscape:window-y="25"
     inkscape:window-maximized="0" />
  <metadata
     id="metadata7">
    <rdf:RDF>
      <cc:Work
         rdf:about="">
        <dc:format>image/svg+xml</dc:format>
        <dc:type
           rdf:resource="http://purl.org/dc/dcmitype/StillImage" />
        <dc:title />
      </cc:Work>
    </rdf:RDF>
  </metadata>
  <g
     inkscape:label="Ebene 1"
     inkscape:groupmode="layer"
     id="layer1"
     transform="translate(0,-452.36218)">
    <g
       style="fill:#4d4d4d"
       transform="matrix(0.38147947,0,0,-0.38147947,226.79897,784.53556)"
       id="g3019">
      <g
         style="fill:#4d4d4d"
         id="g3021" />
      <g
         style="fill:#4d4d4d"
         id="g3023">
        <path
           inkscape:connector-curvature="0"
           style="fill:#4d4d4d"
           d="m -274.72871,-53.333059 35.3166,35.266787 c 0,0 19.81267,-19.800211 39.31401,-39.301547 V 46.390264 h 49.95506 V -57.367819 l 39.33891,39.351358 35.322821,-35.316598 -99.611241,-99.524081 -99.63616,99.524081 z"
           id="path3025" />
      </g>
    </g>
    <g
       id="g3035"
       transform="matrix(0.38147947,0,0,0.38147947,226.79897,725.15049)"
       style="fill:#4d4d4d">
      <g
         id="g3037"
         style="fill:#4d4d4d" />
      <g
         id="g3039"
         style="fill:#4d4d4d">
        <path
           id="path3041"
           d="m -274.72871,-53.333059 35.3166,35.266787 c 0,0 19.81267,-19.800211 39.31401,-39.301547 V 46.390264 h 49.95506 V -57.367819 l 39.33891,39.351358 35.322821,-35.316598 -99.611241,-99.524081 -99.63616,99.524081 z"
           style="fill:#4d4d4d"
           inkscape:connector-curvature="0" />
      </g>
    </g>
    <g
       id="g3043"
       transform="matrix(0.38147947,0,0,-0.38147947,442.79897,784.53556)"
       style="fill:#4d4d4d">
      <g
         id="g3045"
         style="fill:#4d4d4d" />
      <g
         id="g3047"
         style="fill:#4d4d4d">
        <path
           id="path3049"
           d="m -274.72871,-53.333059 35.3166,35.266787 c 0,0 19.81267,-19.800211 39.31401,-39.301547 V 46.390264 h 49.95506 V -57.367819 l 39.33891,39.351358 35.322821,-35.316598 -99.611241,-99.524081 -99.63616,99.524081 z"
           style="fill:#4d4d4d"
           inkscape:connector-curvature="0" />
      </g>
    </g>
    <g
       style="fill:#4d4d4d"
       transform="matrix(0.38147947,0,0,0.38147947,442.79897,725.15049)"
       id="g3051">
      <g
         style="fill:#4d4d4d"
         id="g3053" />
      <g
         style="fill:#4d4d4d"
         id="g3055">
        <path
           inkscape:connector-curvature="0"
           style="fill:#4d4d4d"
           d="m -274.72871,-53.333059 35.3166,35.266787 c 0,0 19.81267,-19.800211 39.31401,-39.301547 V 46.390264 h 49.95506 V -57.367819 l 39.33891,39.351358 35.322821,-35.316598 -99.611241,-99.524081 -99.63616,99.524081 z"
           id="path3057" />
      </g>
    </g>
  </g>
</svg>
