<?xml version="1.0" encoding="UTF-8" standalone="no"?>
<!-- Created with Inkscape (http://www.inkscape.org/) -->

<svg
   xmlns:dc="http://purl.org/dc/elements/1.1/"
   xmlns:cc="http://creativecommons.org/ns#"
   xmlns:rdf="http://www.w3.org/1999/02/22-rdf-syntax-ns#"
   xmlns:svg="http://www.w3.org/2000/svg"
   xmlns="http://www.w3.org/2000/svg"
   xmlns:xlink="http://www.w3.org/1999/xlink"
   xmlns:sodipodi="http://sodipodi.sourceforge.net/DTD/sodipodi-0.dtd"
   xmlns:inkscape="http://www.inkscape.org/namespaces/inkscape"
   id="svg2327"
   sodipodi:docname="computer.svg"
   height="32"
   sodipodi:version="0.32"
   width="32"
   version="1.1"
   inkscape:version="0.91 r">
  <defs
     id="defs3">
    <linearGradient
       id="linearGradient2711">
      <stop
         id="stop2713"
         stop-color="#909090"
         offset="0" />
      <stop
         id="stop2715"
         stop-color="#bebebe"
         stop-opacity="0"
         offset="1" />
    </linearGradient>
    <linearGradient
       id="linearGradient2251"
       y2="33.34"
       gradientUnits="userSpaceOnUse"
       x2="34.784"
       gradientTransform="matrix(1.1299,0,0,0.88506,2.875,1.5706)"
       y1="7.2294002"
       x1="8.6115999">
      <stop
         id="stop2247"
         stop-color="#dde1d9"
         offset="0" />
      <stop
         id="stop2249"
         stop-color="#cacdc6"
         offset="1" />
    </linearGradient>
    <linearGradient
       id="linearGradient2421"
       y2="55.201"
       gradientUnits="userSpaceOnUse"
       x2="34.974998"
       gradientTransform="matrix(1.1081,0,0,0.90247,5.5,3.875)"
       y1="13.005"
       x1="17.698">
      <stop
         id="stop2417"
         stop-color="#fff"
         offset="0" />
      <stop
         id="stop2419"
         stop-color="#fff"
         stop-opacity="0"
         offset="1" />
    </linearGradient>
    <radialGradient
       id="radialGradient2460"
       gradientUnits="userSpaceOnUse"
       cy="67.501999"
       cx="12.576"
       gradientTransform="scale(1.9258,0.51926)"
       r="8.7663002">
      <stop
         id="stop2456"
         offset="0" />
      <stop
         id="stop2458"
         stop-opacity="0"
         offset="1" />
    </radialGradient>
    <linearGradient
       id="linearGradient2673"
       y2="26.729"
       gradientUnits="userSpaceOnUse"
       y1="1.6538"
       gradientTransform="matrix(1.239,0,0,0.89596,5.0906,1.5435)"
       x2="17.198999"
       x1="11.492">
      <stop
         id="stop2669"
         stop-color="#fff"
         offset="0" />
      <stop
         id="stop2671"
         stop-color="#fcfcff"
         stop-opacity="0"
         offset="1" />
    </linearGradient>
    <linearGradient
       id="linearGradient2681"
       y2="8.8666"
       gradientUnits="userSpaceOnUse"
       y1="32.622002"
       gradientTransform="matrix(1.1741,0,0,0.94543,5.2218,1.5435)"
       x2="16.316"
       x1="19.15">
      <stop
         id="stop2677"
         stop-color="#5b5b97"
         offset="0" />
      <stop
         id="stop2679"
         stop-color="#1b1b43"
         offset="1" />
    </linearGradient>
    <linearGradient
       id="linearGradient2689"
       y2="162.45"
       gradientUnits="userSpaceOnUse"
       y1="171.28999"
       gradientTransform="matrix(5.7052,0,0,0.17528,5.5,2.1956)"
       x2="3.707"
       x1="3.707">
      <stop
         id="stop2685"
         offset="0" />
      <stop
         id="stop2687"
         stop-opacity="0"
         offset="1" />
    </linearGradient>
    <linearGradient
       id="linearGradient2707"
       y2="64.892998"
       gradientUnits="userSpaceOnUse"
       y1="53.535"
       gradientTransform="matrix(1.8163,0,0,1.2789,2.5,-40.245)"
       x2="12.128"
       x1="12.207">
      <stop
         id="stop2703"
         stop-color="#585956"
         offset="0" />
      <stop
         id="stop2705"
         stop-color="#bbbeb8"
         offset="1" />
    </linearGradient>
    <linearGradient
       id="linearGradient2717"
       y2="3.8450999"
       xlink:href="#linearGradient2711"
       gradientUnits="userSpaceOnUse"
       y1="3.9384"
       x2="35.521"
       x1="34.300999" />
    <linearGradient
       id="linearGradient1561"
       y2="31.246"
       gradientUnits="userSpaceOnUse"
       y1="5.3818002"
       gradientTransform="matrix(1.1044,0,0,0.90547,4.5,2.875)"
       x2="32.536999"
       x1="10.391">
      <stop
         id="stop2255"
         stop-color="#8f8f8f"
         offset="0" />
      <stop
         id="stop2257"
         stop-color="#494949"
         offset="1" />
    </linearGradient>
    <linearGradient
       id="linearGradient2327"
       y2="28.205999"
       gradientUnits="userSpaceOnUse"
       y1="33.416"
       x2="-35.658001"
       x1="-35.658001">
      <stop
         id="stop2323"
         stop-color="#7b7f7a"
         offset="0" />
      <stop
         id="stop2325"
         stop-color="#7b7f7a"
         stop-opacity="0"
         offset="1" />
    </linearGradient>
    <linearGradient
       id="linearGradient2337"
       y2="30.962"
       gradientUnits="userSpaceOnUse"
       y1="34.242001"
       x2="-35.075001"
       x1="-35.123001">
      <stop
         id="stop2331"
         stop-color="#fff"
         offset="0" />
      <stop
         id="stop2333"
         stop-color="#fff"
         stop-opacity="0"
         offset="1" />
    </linearGradient>
    <linearGradient
       inkscape:collect="always"
       xlink:href="#linearGradient2711"
       id="linearGradient3383"
       gradientUnits="userSpaceOnUse"
       x1="34.300999"
       y1="3.9384"
       x2="35.521"
       y2="3.8450999" />
    <linearGradient
       inkscape:collect="always"
       xlink:href="#linearGradient2711"
       id="linearGradient3385"
       gradientUnits="userSpaceOnUse"
       x1="34.300999"
       y1="3.9384"
       x2="35.521"
       y2="3.8450999" />
    <linearGradient
       inkscape:collect="always"
       xlink:href="#linearGradient2711"
       id="linearGradient3387"
       gradientUnits="userSpaceOnUse"
       x1="34.300999"
       y1="3.9384"
       x2="35.521"
       y2="3.8450999" />
    <linearGradient
       inkscape:collect="always"
       xlink:href="#linearGradient2711"
       id="linearGradient3389"
       gradientUnits="userSpaceOnUse"
       x1="34.300999"
       y1="3.9384"
       x2="35.521"
       y2="3.8450999" />
  </defs>
  <sodipodi:namedview
     id="base"
     bordercolor="#666666"
     pagecolor="#ffffff"
     showgrid="false"
     borderopacity="0.12156863"
     inkscape:zoom="4.9166667"
     inkscape:cx="24.40678"
     inkscape:cy="24"
     inkscape:window-width="3440"
     inkscape:window-height="1413"
     inkscape:window-x="0"
     inkscape:window-y="0"
     inkscape:window-maximized="1"
     inkscape:current-layer="svg2327" />
  <metadata
     id="metadata4">
    <rdf:RDF>
      <cc:Work
         rdf:about="">
        <dc:format>image/svg+xml</dc:format>
        <dc:type
           rdf:resource="http://purl.org/dc/dcmitype/StillImage" />
        <dc:title>Video Display</dc:title>
        <dc:date />
        <dc:creator>
          <cc:Agent>
            <dc:title>Jakub Steiner</dc:title>
          </cc:Agent>
        </dc:creator>
        <dc:subject>
          <rdf:Bag>
            <rdf:li>video</rdf:li>
            <rdf:li>display</rdf:li>
            <rdf:li>monitor</rdf:li>
            <rdf:li>LCD</rdf:li>
            <rdf:li>CRT</rdf:li>
          </rdf:Bag>
        </dc:subject>
        <cc:license
           rdf:resource="http://creativecommons.org/licenses/by-sa/2.0/" />
        <dc:source>http://jimmac.musichall.cz/</dc:source>
      </cc:Work>
      <cc:License
         rdf:about="http://creativecommons.org/licenses/by-sa/2.0/">
        <cc:permits
           rdf:resource="http://web.resource.org/cc/Reproduction" />
        <cc:permits
           rdf:resource="http://web.resource.org/cc/Distribution" />
        <cc:requires
           rdf:resource="http://web.resource.org/cc/Notice" />
        <cc:requires
           rdf:resource="http://web.resource.org/cc/Attribution" />
        <cc:permits
           rdf:resource="http://web.resource.org/cc/DerivativeWorks" />
        <cc:requires
           rdf:resource="http://web.resource.org/cc/ShareAlike" />
      </cc:License>
    </rdf:RDF>
  </metadata>
  <g
     id="layer1"
     transform="matrix(0.63922839,0,0,0.63922839,1.4717531,0.54810342)">
    <ellipse
       id="path2452"
       style="color:#000000;opacity:0.50856999;fill:url(#radialGradient2460);fill-rule:evenodd"
       transform="matrix(1.0503,0,0,1.8679,-0.94556,-28.106)"
       cx="24.218407"
       cy="35.051105"
       rx="16.882174"
       ry="4.552" />
    <ellipse
       id="path2407"
       style="color:#000000;fill:#adb0aa;fill-rule:evenodd;stroke:#4b4d4a"
       transform="translate(60.033,8.0784)"
       cx="-35.658386"
       cy="29.716238"
       rx="9.3944187"
       ry="3.939595" />
    <ellipse
       id="path1825"
       style="color:#000000;fill:none;stroke:url(#linearGradient2327);stroke-width:1.15709996"
       transform="matrix(0.90237,0,0,0.82765,56.552,12.868)"
       cx="-35.658386"
       cy="29.716238"
       rx="9.3944187"
       ry="3.939595" />
    <ellipse
       id="path2983"
       style="color:#000000;fill:none;stroke:url(#linearGradient2337);stroke-width:1.18330002"
       transform="matrix(0.83755,0,0,0.85266,54.178,11.006)"
       cx="-35.658386"
       cy="29.716238"
       rx="9.3944187"
       ry="3.939595" />
    <rect
       id="rect2699"
       style="color:#000000;fill:url(#linearGradient2707);fill-rule:evenodd"
       height="6.3649998"
       width="9.0396996"
       y="31.079"
       x="19.972" />
    <path
       id="rect2404"
       style="color:#000000;fill:url(#linearGradient2251);fill-rule:evenodd;stroke:url(#linearGradient1561)"
       d="m 7.5809,4.5706 33.588,0 c 0.911,0 1.624,0.5835 1.667,1.4016 l 1.332,25.578 c 0.058,1.118 -0.901,2.021 -2.02,2.021 l -35.546,0 c -1.1188,0 -2.0781,-0.903 -2.0199,-2.021 L 5.9141,5.9722 C 5.9543,5.1989 6.4616,4.5708 7.5808,4.5708 Z"
       sodipodi:nodetypes="cssssssss"
       inkscape:connector-curvature="0" />
    <path
       id="path2377"
       d="m 8.9105,7.1808 -1.2422,22.045 31.651,0 -1.335,-21.952 -29.074,-0.0932 z"
       sodipodi:nodetypes="ccccc"
       inkscape:connector-curvature="0"
       style="fill:url(#linearGradient2681);fill-rule:evenodd;stroke:#000079;stroke-width:0.5;stroke-linejoin:round" />
    <path
       id="path2393"
       d="m 6.6774,31.611 35.429,0"
       sodipodi:nodetypes="cc"
       inkscape:connector-curvature="0"
       style="fill:none;stroke:url(#linearGradient2689);stroke-width:0.99618;stroke-linecap:round;stroke-opacity:0.24841003" />
    <path
       id="path2397"
       style="color:#000000;fill:none;stroke:url(#linearGradient2421);stroke-opacity:0.70064003"
       d="m 7.4146,5.5813 33.845,-0.0378 c 0.284,-3e-4 0.559,0.2373 0.582,0.6526 l 1.362,24.803 c 0.058,1.057 -0.54,1.786 -1.598,1.786 l -34.524,0 c -1.0589,0 -1.5933,-0.729 -1.5361,-1.786 L 6.8696,6.5051 C 6.9083,5.7894 7.036,5.5819 7.4142,5.5814 Z"
       sodipodi:nodetypes="cssssssss"
       inkscape:connector-curvature="0" />
    <path
       id="path2443"
       d="M 9.2115,7.6214 8.409,25.4924 C 19.454,23.0914 23.83,14.9994 37.563,12.3454 L 37.402,7.6878 9.212,7.6218 Z"
       sodipodi:nodetypes="ccccc"
       inkscape:connector-curvature="0"
       style="opacity:0.53142999;fill:url(#linearGradient2673);fill-rule:evenodd" />
    <circle
       id="path2709"
       style="color:#000000;fill:url(#linearGradient3383);fill-rule:evenodd"
       transform="matrix(1.3312,0,0,0.65845,-5.9193,5.7289)"
       cx="34.780815"
       cy="3.9384086"
       r="0.83968931" />
    <circle
       id="path2719"
       style="color:#000000;fill:url(#linearGradient3385);fill-rule:evenodd"
       transform="matrix(1.3312,0,0,0.65845,-5.8057,7.8346)"
       cx="34.780815"
       cy="3.9384086"
       r="0.83968931" />
    <circle
       id="path2723"
       style="color:#000000;fill:url(#linearGradient3387);fill-rule:evenodd"
       transform="matrix(1.3312,0,0,0.65845,-5.6921,9.8346)"
       cx="34.780815"
       cy="3.9384086"
       r="0.83968931" />
    <circle
       id="path2727"
       style="color:#000000;fill:url(#linearGradient3389);fill-rule:evenodd"
       transform="matrix(1.3312,0,0,0.65845,-5.5785,11.835)"
       cx="34.780815"
       cy="3.9384086"
       r="0.83968931" />
    <circle
       id="path2731"
       style="color:#000000;fill:url(#linearGradient2717);fill-rule:evenodd"
       transform="matrix(1.3312,0,0,0.65845,-5.4649,13.835)"
       cx="34.780815"
       cy="3.9384086"
       r="0.83968931" />
    <path
       id="text2735"
       d="m 22.5,30.193 0.282,0 c 0.083,0 0.148,0.018 0.192,0.056 0.045,0.037 0.068,0.09 0.068,0.158 0,0.069 -0.023,0.123 -0.068,0.16 -0.044,0.037 -0.109,0.056 -0.192,0.056 l -0.112,0 0,0.228 -0.17,0 0,-0.658 m 0.17,0.123 0,0.184 0.094,0 c 0.033,0 0.058,-0.008 0.076,-0.024 0.018,-0.016 0.027,-0.039 0.027,-0.069 0,-0.029 -0.009,-0.052 -0.027,-0.068 -0.018,-0.015 -0.043,-0.023 -0.076,-0.023 l -0.094,0 m 0.792,-0.012 c -0.052,0 -0.092,0.019 -0.12,0.057 -0.029,0.038 -0.043,0.092 -0.043,0.161 0,0.07 0.014,0.123 0.043,0.161 0.028,0.039 0.068,0.058 0.12,0.058 0.052,0 0.092,-0.019 0.121,-0.058 0.028,-0.038 0.043,-0.091 0.043,-0.161 0,-0.069 -0.015,-0.123 -0.043,-0.161 -0.029,-0.038 -0.069,-0.057 -0.121,-0.057 m 0,-0.123 c 0.106,0 0.189,0.03 0.249,0.091 0.06,0.06 0.09,0.144 0.09,0.25 0,0.107 -0.03,0.19 -0.09,0.251 -0.06,0.06 -0.143,0.091 -0.249,0.091 -0.106,0 -0.188,-0.031 -0.249,-0.091 -0.06,-0.061 -0.09,-0.144 -0.09,-0.251 0,-0.106 0.03,-0.19 0.09,-0.25 0.061,-0.061 0.143,-0.091 0.249,-0.091 m 0.466,0.012 0.19,0 0.239,0.451 0,-0.451 0.161,0 0,0.658 -0.189,0 -0.24,-0.452 0,0.452 -0.161,0 0,-0.658 m 0.663,0 0.186,0 0.15,0.234 0.15,-0.234 0.186,0 -0.251,0.381 0,0.277 -0.17,0 0,-0.277 -0.251,-0.381"
       inkscape:connector-curvature="0"
       style="fill:#4a4a4a" />
  </g>
</svg>
