<?xml version="1.0" encoding="UTF-8" standalone="no"?>
<!-- Created with Inkscape (http://www.inkscape.org/) -->
<svg id="svg2327" xmlns:rdf="http://www.w3.org/1999/02/22-rdf-syntax-ns#" xmlns="http://www.w3.org/2000/svg" sodipodi:docname="video-display.svg" xmlns:sodipodi="http://inkscape.sourceforge.net/DTD/sodipodi-0.dtd" height="48px" sodipodi:version="0.32" width="48px" xmlns:cc="http://web.resource.org/cc/" xmlns:xlink="http://www.w3.org/1999/xlink" sodipodi:docbase="/home/tigert/cvs/freedesktop.org/tango-icon-theme/scalable/devices" xmlns:dc="http://purl.org/dc/elements/1.1/">
 <defs id="defs3">
  <linearGradient id="linearGradient2711">
   <stop id="stop2713" stop-color="#909090" offset="0"/>
   <stop id="stop2715" stop-color="#bebebe" stop-opacity="0" offset="1"/>
  </linearGradient>
  <linearGradient id="linearGradient2251" y2="33.34" gradientUnits="userSpaceOnUse" x2="34.784" gradientTransform="matrix(1.1299 0 0 .88506 2.875 1.5706)" y1="7.2294" x1="8.6116">
   <stop id="stop2247" stop-color="#dde1d9" offset="0"/>
   <stop id="stop2249" stop-color="#cacdc6" offset="1"/>
  </linearGradient>
  <linearGradient id="linearGradient2421" y2="55.201" gradientUnits="userSpaceOnUse" x2="34.975" gradientTransform="matrix(1.1081 0 0 .90247 5.5 3.875)" y1="13.005" x1="17.698">
   <stop id="stop2417" stop-color="#fff" offset="0"/>
   <stop id="stop2419" stop-color="#fff" stop-opacity="0" offset="1"/>
  </linearGradient>
  <radialGradient id="radialGradient2460" gradientUnits="userSpaceOnUse" cy="67.502" cx="12.576" gradientTransform="scale(1.9258 .51926)" r="8.7663">
   <stop id="stop2456" offset="0"/>
   <stop id="stop2458" stop-opacity="0" offset="1"/>
  </radialGradient>
  <linearGradient id="linearGradient2673" y2="26.729" gradientUnits="userSpaceOnUse" y1="1.6538" gradientTransform="matrix(1.239 0 0 .89596 5.0906 1.5435)" x2="17.199" x1="11.492">
   <stop id="stop2669" stop-color="#fff" offset="0"/>
   <stop id="stop2671" stop-color="#fcfcff" stop-opacity="0" offset="1"/>
  </linearGradient>
  <linearGradient id="linearGradient2681" y2="8.8666" gradientUnits="userSpaceOnUse" y1="32.622" gradientTransform="matrix(1.1741 0 0 .94543 5.2218 1.5435)" x2="16.316" x1="19.15">
   <stop id="stop2677" stop-color="#5b5b97" offset="0"/>
   <stop id="stop2679" stop-color="#1b1b43" offset="1"/>
  </linearGradient>
  <linearGradient id="linearGradient2689" y2="162.45" gradientUnits="userSpaceOnUse" y1="171.29" gradientTransform="matrix(5.7052 0 0 .17528 5.5 2.1956)" x2="3.707" x1="3.707">
   <stop id="stop2685" offset="0"/>
   <stop id="stop2687" stop-opacity="0" offset="1"/>
  </linearGradient>
  <linearGradient id="linearGradient2707" y2="64.893" gradientUnits="userSpaceOnUse" y1="53.535" gradientTransform="matrix(1.8163 0 0 1.2789 2.5 -40.245)" x2="12.128" x1="12.207">
   <stop id="stop2703" stop-color="#585956" offset="0"/>
   <stop id="stop2705" stop-color="#bbbeb8" offset="1"/>
  </linearGradient>
  <linearGradient id="linearGradient2717" y2="3.8451" xlink:href="#linearGradient2711" gradientUnits="userSpaceOnUse" y1="3.9384" x2="35.521" x1="34.301"/>
  <linearGradient id="linearGradient1561" y2="31.246" gradientUnits="userSpaceOnUse" y1="5.3818" gradientTransform="matrix(1.1044 0 0 .90547 4.5 2.875)" x2="32.537" x1="10.391">
   <stop id="stop2255" stop-color="#8f8f8f" offset="0"/>
   <stop id="stop2257" stop-color="#494949" offset="1"/>
  </linearGradient>
  <linearGradient id="linearGradient2327" y2="28.206" gradientUnits="userSpaceOnUse" y1="33.416" x2="-35.658" x1="-35.658">
   <stop id="stop2323" stop-color="#7b7f7a" offset="0"/>
   <stop id="stop2325" stop-color="#7b7f7a" stop-opacity="0" offset="1"/>
  </linearGradient>
  <linearGradient id="linearGradient2337" y2="30.962" gradientUnits="userSpaceOnUse" y1="34.242" x2="-35.075" x1="-35.123">
   <stop id="stop2331" stop-color="#fff" offset="0"/>
   <stop id="stop2333" stop-color="#fff" stop-opacity="0" offset="1"/>
  </linearGradient>
 </defs>
 <sodipodi:namedview id="base" bordercolor="#666666" pagecolor="#ffffff" showgrid="false" borderopacity="0.12156863"/>
 <metadata id="metadata4">
  <rdf:RDF>
   <cc:Work rdf:about="">
    <dc:format>image/svg+xml</dc:format>
    <dc:type rdf:resource="http://purl.org/dc/dcmitype/StillImage"/>
    <dc:title>Video Display</dc:title>
    <dc:date/>
    <dc:creator>
     <cc:Agent>
      <dc:title>Jakub Steiner</dc:title>
     </cc:Agent>
    </dc:creator>
    <dc:subject>
     <rdf:Bag>
      <rdf:li>video</rdf:li>
      <rdf:li>display</rdf:li>
      <rdf:li>monitor</rdf:li>
      <rdf:li>LCD</rdf:li>
      <rdf:li>CRT</rdf:li>
     </rdf:Bag>
    </dc:subject>
    <cc:license rdf:resource="http://creativecommons.org/licenses/by-sa/2.0/"/>
    <dc:source>http://jimmac.musichall.cz/</dc:source>
   </cc:Work>
   <cc:License rdf:about="http://creativecommons.org/licenses/by-sa/2.0/">
    <cc:permits rdf:resource="http://web.resource.org/cc/Reproduction"/>
    <cc:permits rdf:resource="http://web.resource.org/cc/Distribution"/>
    <cc:requires rdf:resource="http://web.resource.org/cc/Notice"/>
    <cc:requires rdf:resource="http://web.resource.org/cc/Attribution"/>
    <cc:permits rdf:resource="http://web.resource.org/cc/DerivativeWorks"/>
    <cc:requires rdf:resource="http://web.resource.org/cc/ShareAlike"/>
   </cc:License>
  </rdf:RDF>
 </metadata>
 <g id="layer1">
  <path id="path2452" sodipodi:rx="16.882174" sodipodi:ry="4.5520000" style="color:#000000" sodipodi:type="arc" d="m41.101 35.051a16.882 4.552 0 1 1 -33.765 0 16.882 4.552 0 1 1 33.765 0z" fill-rule="evenodd" opacity=".50857" transform="matrix(1.0503 0 0 1.8679 -.94556 -28.106)" sodipodi:cy="35.051105" sodipodi:cx="24.218407" fill="url(#radialGradient2460)"/>
  <path id="path2407" sodipodi:rx="9.3944187" sodipodi:ry="3.9395950" stroke="#4b4d4a" fill="#adb0aa" style="color:#000000" fill-rule="evenodd" transform="translate(60.033 8.0784)" sodipodi:type="arc" d="m-26.264 29.716a9.3944 3.9396 0 1 1 -18.789 0 9.3944 3.9396 0 1 1 18.789 0z" sodipodi:cy="29.716238" sodipodi:cx="-35.658386"/>
  <path id="path1825" sodipodi:rx="9.3944187" sodipodi:ry="3.9395950" stroke="url(#linearGradient2327)" stroke-width="1.1571" fill="none" style="color:#000000" transform="matrix(.90237 0 0 .82765 56.552 12.868)" sodipodi:type="arc" d="m-26.264 29.716a9.3944 3.9396 0 1 1 -18.789 0 9.3944 3.9396 0 1 1 18.789 0z" sodipodi:cy="29.716238" sodipodi:cx="-35.658386"/>
  <path id="path2983" sodipodi:rx="9.3944187" sodipodi:ry="3.9395950" stroke="url(#linearGradient2337)" stroke-width="1.1833" fill="none" style="color:#000000" transform="matrix(.83755 0 0 .85266 54.178 11.006)" sodipodi:type="arc" d="m-26.264 29.716a9.3944 3.9396 0 1 1 -18.789 0 9.3944 3.9396 0 1 1 18.789 0z" sodipodi:cy="29.716238" sodipodi:cx="-35.658386"/>
  <rect id="rect2699" style="color:#000000" fill-rule="evenodd" height="6.365" width="9.0397" y="31.079" x="19.972" fill="url(#linearGradient2707)"/>
  <path id="rect2404" style="color:#000000" d="m7.5809 4.5706h33.588c0.911 0 1.624 0.5835 1.667 1.4016l1.332 25.578c0.058 1.118-0.901 2.021-2.02 2.021h-35.546c-1.1188 0-2.0781-0.903-2.0199-2.021l1.3321-25.578c0.0402-0.7733 0.5475-1.4014 1.6667-1.4014z" fill-rule="evenodd" sodipodi:nodetypes="cssssssss" stroke="url(#linearGradient1561)" fill="url(#linearGradient2251)"/>
  <path id="path2377" stroke-linejoin="round" d="m8.9105 7.1808l-1.2422 22.045h31.651l-1.335-21.952-29.074-0.0932z" fill-rule="evenodd" sodipodi:nodetypes="ccccc" stroke="#000079" stroke-width=".5" fill="url(#linearGradient2681)"/>
  <path id="path2393" d="m6.6774 31.611h35.429" stroke-opacity=".24841" sodipodi:nodetypes="cc" stroke="url(#linearGradient2689)" stroke-linecap="round" stroke-width=".99618" fill="none"/>
  <path id="path2397" style="color:#000000" d="m7.4146 5.5813l33.845-0.0378c0.284-0.0003 0.559 0.2373 0.582 0.6526l1.362 24.803c0.058 1.057-0.54 1.786-1.598 1.786h-34.524c-1.0589 0-1.5933-0.729-1.5361-1.786l1.3241-24.494c0.0387-0.7157 0.1664-0.9232 0.5446-0.9237z" stroke-opacity=".70064" sodipodi:nodetypes="cssssssss" stroke="url(#linearGradient2421)" fill="none"/>
  <path id="path2443" opacity=".53143" d="m9.2115 7.6214l-0.8025 17.871c11.045-2.401 15.421-10.493 29.154-13.147l-0.161-4.6576-28.19-0.066z" fill-rule="evenodd" sodipodi:nodetypes="ccccc" fill="url(#linearGradient2673)"/>
  <path id="path2709" sodipodi:rx="0.83968931" sodipodi:ry="0.83968931" style="color:#000000" sodipodi:type="arc" d="m35.621 3.9384a0.83969 0.83969 0 1 1 -1.68 0 0.83969 0.83969 0 1 1 1.68 0z" fill-rule="evenodd" transform="matrix(1.3312 0 0 .65845 -5.9193 5.7289)" sodipodi:cy="3.9384086" sodipodi:cx="34.780815" fill="url(#linearGradient2717)"/>
  <path id="path2719" sodipodi:rx="0.83968931" sodipodi:ry="0.83968931" style="color:#000000" sodipodi:type="arc" d="m35.621 3.9384a0.83969 0.83969 0 1 1 -1.68 0 0.83969 0.83969 0 1 1 1.68 0z" fill-rule="evenodd" transform="matrix(1.3312 0 0 .65845 -5.8057 7.8346)" sodipodi:cy="3.9384086" sodipodi:cx="34.780815" fill="url(#linearGradient2717)"/>
  <path id="path2723" sodipodi:rx="0.83968931" sodipodi:ry="0.83968931" style="color:#000000" sodipodi:type="arc" d="m35.621 3.9384a0.83969 0.83969 0 1 1 -1.68 0 0.83969 0.83969 0 1 1 1.68 0z" fill-rule="evenodd" transform="matrix(1.3312 0 0 .65845 -5.6921 9.8346)" sodipodi:cy="3.9384086" sodipodi:cx="34.780815" fill="url(#linearGradient2717)"/>
  <path id="path2727" sodipodi:rx="0.83968931" sodipodi:ry="0.83968931" style="color:#000000" sodipodi:type="arc" d="m35.621 3.9384a0.83969 0.83969 0 1 1 -1.68 0 0.83969 0.83969 0 1 1 1.68 0z" fill-rule="evenodd" transform="matrix(1.3312 0 0 .65845 -5.5785 11.835)" sodipodi:cy="3.9384086" sodipodi:cx="34.780815" fill="url(#linearGradient2717)"/>
  <path id="path2731" sodipodi:rx="0.83968931" sodipodi:ry="0.83968931" style="color:#000000" sodipodi:type="arc" d="m35.621 3.9384a0.83969 0.83969 0 1 1 -1.68 0 0.83969 0.83969 0 1 1 1.68 0z" fill-rule="evenodd" transform="matrix(1.3312 0 0 .65845 -5.4649 13.835)" sodipodi:cy="3.9384086" sodipodi:cx="34.780815" fill="url(#linearGradient2717)"/>
  <path id="text2735" fill="#4a4a4a" d="m22.5 30.193h0.282c0.083 0 0.148 0.018 0.192 0.056 0.045 0.037 0.068 0.09 0.068 0.158 0 0.069-0.023 0.123-0.068 0.16-0.044 0.037-0.109 0.056-0.192 0.056h-0.112v0.228h-0.17v-0.658m0.17 0.123v0.184h0.094c0.033 0 0.058-0.008 0.076-0.024s0.027-0.039 0.027-0.069c0-0.029-0.009-0.052-0.027-0.068-0.018-0.015-0.043-0.023-0.076-0.023h-0.094m0.792-0.012c-0.052 0-0.092 0.019-0.12 0.057-0.029 0.038-0.043 0.092-0.043 0.161 0 0.07 0.014 0.123 0.043 0.161 0.028 0.039 0.068 0.058 0.12 0.058s0.092-0.019 0.121-0.058c0.028-0.038 0.043-0.091 0.043-0.161 0-0.069-0.015-0.123-0.043-0.161-0.029-0.038-0.069-0.057-0.121-0.057m0-0.123c0.106 0 0.189 0.03 0.249 0.091 0.06 0.06 0.09 0.144 0.09 0.25 0 0.107-0.03 0.19-0.09 0.251-0.06 0.06-0.143 0.091-0.249 0.091s-0.188-0.031-0.249-0.091c-0.06-0.061-0.09-0.144-0.09-0.251 0-0.106 0.03-0.19 0.09-0.25 0.061-0.061 0.143-0.091 0.249-0.091m0.466 0.012h0.19l0.239 0.451v-0.451h0.161v0.658h-0.189l-0.24-0.452v0.452h-0.161v-0.658m0.663 0h0.186l0.15 0.234 0.15-0.234h0.186l-0.251 0.381v0.277h-0.17v-0.277l-0.251-0.381"/>
 </g>
</svg>