<?xml version="1.0" encoding="UTF-8" standalone="no"?>
<!-- Created with Inkscape (http://www.inkscape.org/) -->

<svg
   xmlns:dc="http://purl.org/dc/elements/1.1/"
   xmlns:cc="http://creativecommons.org/ns#"
   xmlns:rdf="http://www.w3.org/1999/02/22-rdf-syntax-ns#"
   xmlns:svg="http://www.w3.org/2000/svg"
   xmlns="http://www.w3.org/2000/svg"
   xmlns:xlink="http://www.w3.org/1999/xlink"
   xmlns:sodipodi="http://sodipodi.sourceforge.net/DTD/sodipodi-0.dtd"
   xmlns:inkscape="http://www.inkscape.org/namespaces/inkscape"
   sodipodi:docname="domain.svg"
   inkscape:version="0.91 r"
   sodipodi:version="0.32"
   id="svg2913"
   height="32"
   width="32"
   inkscape:output_extension="org.inkscape.output.svg.inkscape"
   version="1.1">
  <defs
     id="defs3">
    <linearGradient
       id="linearGradient2510"
       inkscape:collect="always">
      <stop
         id="stop2512"
         offset="0"
         style="stop-color:#ffffff;stop-opacity:1;" />
      <stop
         id="stop2514"
         offset="1"
         style="stop-color:#ffffff;stop-opacity:0;" />
    </linearGradient>
    <linearGradient
       id="linearGradient5411"
       inkscape:collect="always">
      <stop
         id="stop5413"
         offset="0"
         style="stop-color:#ffffff;stop-opacity:1;" />
      <stop
         id="stop5415"
         offset="1"
         style="stop-color:#ffffff;stop-opacity:0;" />
    </linearGradient>
    <linearGradient
       id="linearGradient5069"
       inkscape:collect="always">
      <stop
         id="stop5071"
         offset="0"
         style="stop-color:#000000;stop-opacity:1;" />
      <stop
         id="stop5073"
         offset="1"
         style="stop-color:#000000;stop-opacity:0;" />
    </linearGradient>
    <linearGradient
       id="linearGradient5018">
      <stop
         id="stop5020"
         offset="0"
         style="stop-color:#aaaaaa;stop-opacity:1;" />
      <stop
         id="stop5022"
         offset="1.0000000"
         style="stop-color:#cdcdcd;stop-opacity:1.0000000;" />
    </linearGradient>
    <linearGradient
       id="linearGradient4990">
      <stop
         id="stop4992"
         offset="0.0000000"
         style="stop-color:#ff8a2b;stop-opacity:1.0000000;" />
      <stop
         id="stop4994"
         offset="1.0000000"
         style="stop-color:#833a00;stop-opacity:1.0000000;" />
    </linearGradient>
    <linearGradient
       id="linearGradient4264"
       inkscape:collect="always">
      <stop
         id="stop4266"
         offset="0"
         style="stop-color:#000000;stop-opacity:1;" />
      <stop
         id="stop4268"
         offset="1"
         style="stop-color:#000000;stop-opacity:0;" />
    </linearGradient>
    <linearGradient
       id="linearGradient4254"
       inkscape:collect="always">
      <stop
         id="stop4256"
         offset="0"
         style="stop-color:#ffffff;stop-opacity:1;" />
      <stop
         id="stop4258"
         offset="1"
         style="stop-color:#ffffff;stop-opacity:0;" />
    </linearGradient>
    <linearGradient
       id="linearGradient4244">
      <stop
         id="stop4246"
         offset="0.0000000"
         style="stop-color:#e4e4e4;stop-opacity:1.0000000;" />
      <stop
         id="stop4248"
         offset="1.0000000"
         style="stop-color:#d3d3d3;stop-opacity:1.0000000;" />
    </linearGradient>
    <linearGradient
       id="linearGradient4228">
      <stop
         id="stop4230"
         offset="0.0000000"
         style="stop-color:#bbbbbb;stop-opacity:1.0000000;" />
      <stop
         id="stop4232"
         offset="1.0000000"
         style="stop-color:#9f9f9f;stop-opacity:1.0000000;" />
    </linearGradient>
    <radialGradient
       inkscape:collect="always"
       xlink:href="#linearGradient4264"
       id="radialGradient1464"
       gradientUnits="userSpaceOnUse"
       gradientTransform="matrix(0.68637639,0,0,0.15415966,-0.64121305,38.524281)"
       cx="23.201941"
       cy="27.096155"
       fx="23.201941"
       fy="27.096155"
       r="23.555494" />
    <radialGradient
       inkscape:collect="always"
       xlink:href="#linearGradient5069"
       id="radialGradient1470"
       gradientUnits="userSpaceOnUse"
       gradientTransform="matrix(0.65211864,0,0,0.40710267,-0.20661771,24.319791)"
       cx="10.363534"
       cy="32.708817"
       fx="10.363534"
       fy="32.708817"
       r="3.8227961" />
    <linearGradient
       inkscape:collect="always"
       xlink:href="#linearGradient5411"
       id="linearGradient1476"
       gradientUnits="userSpaceOnUse"
       x1="24.237061"
       y1="31.712437"
       x2="24.237061"
       y2="28.359171" />
    <linearGradient
       inkscape:collect="always"
       xlink:href="#linearGradient4990"
       id="linearGradient1482"
       gradientUnits="userSpaceOnUse"
       x1="23.599133"
       y1="3.4934268"
       x2="26.032751"
       y2="13.095204" />
    <linearGradient
       inkscape:collect="always"
       xlink:href="#linearGradient4990"
       id="linearGradient1484"
       gradientUnits="userSpaceOnUse"
       x1="24.395184"
       y1="11.50959"
       x2="17.766058"
       y2="-6.4607105" />
    <linearGradient
       inkscape:collect="always"
       xlink:href="#linearGradient2510"
       id="linearGradient1489"
       gradientUnits="userSpaceOnUse"
       x1="21.057629"
       y1="2.4374962"
       x2="26.28611"
       y2="29.562496"
       gradientTransform="matrix(0.65211864,0,0,0.65211864,-0.30748677,16.11829)" />
    <linearGradient
       inkscape:collect="always"
       xlink:href="#linearGradient5018"
       id="linearGradient1496"
       gradientUnits="userSpaceOnUse"
       gradientTransform="matrix(0.65211864,0,0,0.65211864,-0.30748677,15.710716)"
       x1="26.3125"
       y1="17.5"
       x2="23.0625"
       y2="17.5" />
    <linearGradient
       inkscape:collect="always"
       xlink:href="#linearGradient5018"
       id="linearGradient1501"
       gradientUnits="userSpaceOnUse"
       gradientTransform="matrix(0.65211864,0,0,0.65211864,-0.30748677,15.710716)"
       x1="28.46875"
       y1="28.125"
       x2="20"
       y2="26.375" />
    <linearGradient
       inkscape:collect="always"
       xlink:href="#linearGradient4254"
       id="linearGradient1507"
       gradientUnits="userSpaceOnUse"
       gradientTransform="matrix(0.65211864,0,0,0.65211864,-0.30748677,21.371408)"
       x1="12.378357"
       y1="4.433136"
       x2="44.0961"
       y2="47.620636" />
    <radialGradient
       inkscape:collect="always"
       xlink:href="#linearGradient4244"
       id="radialGradient1512"
       gradientUnits="userSpaceOnUse"
       gradientTransform="matrix(0.83878238,0.50975984,-0.46351419,0.76268666,-1.842801,18.191116)"
       cx="15.571491"
       cy="2.958519"
       fx="15.571491"
       fy="2.958519"
       r="20.935818" />
    <linearGradient
       inkscape:collect="always"
       xlink:href="#linearGradient4228"
       id="linearGradient1516"
       gradientUnits="userSpaceOnUse"
       gradientTransform="matrix(0.65211864,0,0,0.65211864,-0.30748677,21.371408)"
       x1="7.6046205"
       y1="28.481176"
       x2="36.183067"
       y2="40.943935" />
    <radialGradient
       inkscape:collect="always"
       xlink:href="#linearGradient4990"
       id="radialGradient1520"
       gradientUnits="userSpaceOnUse"
       gradientTransform="matrix(1.5052306,0,0,1.5052306,-19.138016,12.165926)"
       cx="22.693991"
       cy="4.9365706"
       fx="22.693991"
       fy="4.9365706"
       r="6.6291261" />
  </defs>
  <sodipodi:namedview
     inkscape:window-y="111"
     inkscape:window-x="471"
     inkscape:window-height="768"
     inkscape:window-width="1016"
     inkscape:document-units="px"
     inkscape:grid-bbox="true"
     showgrid="false"
     inkscape:current-layer="layer2"
     inkscape:cy="36.088066"
     inkscape:cx="21.920506"
     inkscape:zoom="8"
     inkscape:pageshadow="2"
     inkscape:pageopacity="0.0"
     borderopacity="1.0"
     bordercolor="#666666"
     pagecolor="#ffffff"
     id="base"
     inkscape:showpageshadow="false"
     inkscape:window-maximized="0" />
  <metadata
     id="metadata4">
    <rdf:RDF>
      <cc:Work
         rdf:about="">
        <dc:format>image/svg+xml</dc:format>
        <dc:type
           rdf:resource="http://purl.org/dc/dcmitype/StillImage" />
        <dc:title>Input - Gaming</dc:title>
        <dc:creator>
          <cc:Agent>
            <dc:title>Jakub Steiner</dc:title>
          </cc:Agent>
        </dc:creator>
        <dc:subject>
          <rdf:Bag>
            <rdf:li>gaming</rdf:li>
            <rdf:li>controller</rdf:li>
            <rdf:li>joystick</rdf:li>
            <rdf:li>game</rdf:li>
            <rdf:li>gaming</rdf:li>
            <rdf:li>HID</rdf:li>
          </rdf:Bag>
        </dc:subject>
        <cc:license
           rdf:resource="http://creativecommons.org/licenses/by-sa/2.0/" />
        <dc:identifier />
        <dc:source>http://jimmac.musichall.cz</dc:source>
      </cc:Work>
      <cc:License
         rdf:about="http://creativecommons.org/licenses/by-sa/2.0/">
        <cc:permits
           rdf:resource="http://web.resource.org/cc/Reproduction" />
        <cc:permits
           rdf:resource="http://web.resource.org/cc/Distribution" />
        <cc:requires
           rdf:resource="http://web.resource.org/cc/Notice" />
        <cc:requires
           rdf:resource="http://web.resource.org/cc/Attribution" />
        <cc:permits
           rdf:resource="http://web.resource.org/cc/DerivativeWorks" />
        <cc:requires
           rdf:resource="http://web.resource.org/cc/ShareAlike" />
      </cc:License>
    </rdf:RDF>
  </metadata>
  <g
     inkscape:label="pix"
     id="layer2"
     inkscape:groupmode="layer"
     transform="translate(0,-16)">
    <ellipse
       id="path4262"
       style="color:#000000;display:inline;overflow:visible;visibility:visible;opacity:0.56000001;fill:url(#radialGradient1464);fill-opacity:1;fill-rule:evenodd;stroke:none;stroke-width:1;stroke-linecap:round;stroke-linejoin:round;stroke-miterlimit:4;stroke-dasharray:none;stroke-dashoffset:0;stroke-opacity:1;marker:none;marker-start:none;marker-mid:none;marker-end:none"
       cx="15.284051"
       cy="42.701416"
       rx="16.167934"
       ry="3.6313066" />
    <path
       sodipodi:nodetypes="cccsccccccccc"
       id="path4196"
       d="m 5.7478848,30.476694 c -0.4075742,0 -0.6724967,0.189232 -0.8355257,0.550227 -7e-7,0 -2.9141555,7.240841 -2.9141555,7.240841 0,0 -0.1630297,0.437936 -0.1630297,1.161586 0,0 0,3.68445 0,3.68445 0,0.705992 0.4289542,1.059694 1.0800715,1.059693 l 25.1473236,0 c 0.642241,0 1.039315,-0.468339 1.039315,-1.202344 l 0,-3.68445 c 0,0 0.0691,-0.502407 -0.06114,-0.855905 L 25.963563,31.128815 C 25.84323,30.794991 25.548225,30.484458 25.229929,30.476694 l -19.4820442,0 z"
       style="fill:none;fill-opacity:1;fill-rule:evenodd;stroke:#535353;stroke-width:1.30423725;stroke-linecap:round;stroke-linejoin:round;stroke-miterlimit:4;stroke-dasharray:none;stroke-opacity:1"
       inkscape:connector-curvature="0" />
    <path
       sodipodi:nodetypes="ccccccccc"
       id="path4170"
       d="m 1.8272833,38.976533 0.4986112,-0.451407 24.5259795,0.04076 2.2579,0.206916 0,4.198687 c 0,0.734004 -0.395848,1.20207 -1.038089,1.20207 l -25.160685,0 c -0.6511174,0 -1.0837167,-0.353482 -1.0837167,-1.059474 l 0,-4.13755 z"
       style="fill:url(#linearGradient1516);fill-opacity:1;fill-rule:evenodd;stroke:none;stroke-width:1.02044296px;stroke-linecap:butt;stroke-linejoin:miter;stroke-opacity:1"
       inkscape:connector-curvature="0" />
    <path
       id="path5030"
       d="m 15.710177,28.997633 c -1.711586,0 -3.071316,0.685973 -3.179078,1.548782 l -0.04076,0 c 0,0 -0.835527,3.382866 -0.835527,3.382866 -0.142651,0.713254 1.355588,1.976734 4.055362,1.976734 2.720243,0 4.279529,-1.283858 4.014606,-2.241658 0,0 -0.774391,-3.117942 -0.774391,-3.117942 l -0.04076,0 C 18.802922,29.68309 17.422487,28.997634 15.710177,28.997633 Z"
       style="color:#000000;font-family:'Bitstream Vera Sans';display:inline;overflow:visible;visibility:visible;opacity:1;fill:none;fill-opacity:1;fill-rule:evenodd;stroke:#666666;stroke-width:1.30423725;stroke-linecap:butt;stroke-linejoin:miter;stroke-miterlimit:4;stroke-dasharray:none;stroke-dashoffset:0;stroke-opacity:1;marker:none;marker-start:none;marker-mid:none;marker-end:none"
       inkscape:connector-curvature="0" />
    <path
       sodipodi:nodetypes="csccccccs"
       id="path3093"
       d="m 2.0069372,38.270674 c -0.465799,0.954889 -4.015e-4,1.560427 0.6754086,1.560427 0,0 25.4326262,0 25.4326262,0 0.729751,-0.01553 1.203314,-0.659882 0.931598,-1.397398 L 25.972296,31.122994 C 25.851964,30.78917 25.545313,30.478636 25.227017,30.470872 l -19.4703984,0 c -0.4075742,0 -0.6754084,0.197966 -0.8384374,0.558961 0,0 -2.911244,7.240841 -2.911244,7.240841 z"
       style="fill:url(#radialGradient1512);fill-opacity:1;fill-rule:evenodd;stroke:none;stroke-width:1px;stroke-linecap:butt;stroke-linejoin:miter;stroke-opacity:1"
       inkscape:connector-curvature="0" />
    <ellipse
       id="path5067"
       style="color:#000000;font-family:'Bitstream Vera Sans';display:inline;overflow:visible;visibility:visible;opacity:1;fill:url(#radialGradient1470);fill-opacity:1;fill-rule:evenodd;stroke:none;stroke-width:2;stroke-linecap:butt;stroke-linejoin:miter;stroke-miterlimit:4;stroke-dasharray:none;stroke-dashoffset:0;stroke-opacity:1;marker:none;marker-start:none;marker-mid:none;marker-end:none"
       cx="6.5516357"
       cy="37.635647"
       rx="2.4929166"
       ry="1.5562716" />
    <path
       sodipodi:nodetypes="cccccccc"
       id="path4201"
       d="m 28.904925,38.084354 c 0.04142,0.815131 -0.269979,1.510202 -0.862176,1.528403 0,0 -24.8579255,-1e-6 -24.8579255,0 -0.8407321,0 -1.2179854,-0.211904 -1.3590483,-0.566076 0.059839,0.615817 0.538531,1.075543 1.3590483,1.075543 0,0 24.8579255,0 24.8579255,0 0.701684,-0.02157 1.143037,-0.928632 0.881771,-1.952959 l -0.0196,-0.08491 z"
       style="fill:#ffffff;fill-opacity:1;fill-rule:evenodd;stroke:none;stroke-width:1px;stroke-linecap:butt;stroke-linejoin:miter;stroke-opacity:1"
       inkscape:connector-curvature="0" />
    <path
       style="fill:none;fill-opacity:1;fill-rule:evenodd;stroke:url(#linearGradient1507);stroke-width:0.6521188;stroke-linecap:round;stroke-linejoin:round;stroke-miterlimit:4;stroke-dasharray:none;stroke-opacity:1"
       d="m 5.980577,30.772166 c -0.3923746,0 -0.6474175,0.182175 -0.8043662,0.529707 -6e-7,0 -2.8791135,6.906412 -2.8791135,6.906412 0,0 -0.1569498,0.421604 -0.1569498,1.118268 0,0 0,3.44977 0,3.44977 0,0.883451 0.2895772,1.060931 1.0397928,1.060931 l 24.5763327,0 c 0.862835,0 1.000556,-0.206328 1.000556,-1.198263 l 0,-3.44977 c 0,0 0.06652,-0.48367 -0.05885,-0.823986 L 25.702667,31.318453 C 25.586823,30.997078 25.343576,30.779639 25.03715,30.772166 l -19.056573,0 z"
       id="path4252"
       sodipodi:nodetypes="cccsccccccccc"
       inkscape:connector-curvature="0" />
    <ellipse
       id="path4341"
       style="color:#000000;font-family:'Bitstream Vera Sans';display:inline;overflow:visible;visibility:visible;opacity:1;fill:#ffffff;fill-opacity:0.48022599;fill-rule:evenodd;stroke:none;stroke-width:1px;stroke-linecap:butt;stroke-linejoin:miter;stroke-miterlimit:4;stroke-dasharray:none;stroke-dashoffset:0;stroke-opacity:1;marker:none;marker-start:none;marker-mid:none;marker-end:none"
       cx="15.71635"
       cy="34.562241"
       rx="7.4739475"
       ry="3.8281193" />
    <ellipse
       style="color:#000000;font-family:'Bitstream Vera Sans';display:inline;overflow:visible;visibility:visible;opacity:1;fill:#c9c9c9;fill-opacity:1;fill-rule:evenodd;stroke:none;stroke-width:1px;stroke-linecap:butt;stroke-linejoin:miter;stroke-miterlimit:4;stroke-dasharray:none;stroke-dashoffset:0;stroke-opacity:1;marker:none;marker-start:none;marker-mid:none;marker-end:none"
       id="path4343"
       cx="15.716354"
       cy="33.828613"
       rx="4.0347805"
       ry="2.0665948" />
    <path
       sodipodi:nodetypes="ccccccccccc"
       id="path4659"
       d="m 15.710177,16.994575 c -2.386283,0 -4.320286,1.934003 -4.320286,4.320286 0,1.700437 1.016702,3.125439 2.445445,3.831197 l 0,5.522629 c 0,0 0,0.02324 0,0.04076 0,0.530803 0.838511,0.9578 1.874841,0.957799 1.03633,0 1.874841,-0.426996 1.874841,-0.957799 l 0,-0.04076 0,-5.502251 c 1.441471,-0.70116 2.445445,-2.141815 2.445445,-3.851575 0,-2.386284 -1.934002,-4.320286 -4.320286,-4.320286 z"
       style="color:#000000;font-family:'Bitstream Vera Sans';display:inline;overflow:visible;visibility:visible;opacity:1;fill:none;fill-opacity:1;fill-rule:evenodd;stroke:#666666;stroke-width:1.30423725;stroke-linecap:butt;stroke-linejoin:miter;stroke-miterlimit:4;stroke-dasharray:none;stroke-dashoffset:0;stroke-opacity:1;marker:none;marker-start:none;marker-mid:none;marker-end:none"
       inkscape:connector-curvature="0" />
    <path
       sodipodi:nodetypes="cczccc"
       id="path5026"
       d="m 18.950392,30.546415 c 0,0 0.774391,3.117942 0.774391,3.117942 0.264923,0.9578 -1.294363,2.241658 -4.014606,2.241658 -2.699774,0 -4.198013,-1.26348 -4.055362,-1.976734 0,0 0.835527,-3.382866 0.835527,-3.382866 l 6.46005,0 z"
       style="color:#000000;font-family:'Bitstream Vera Sans';display:inline;overflow:visible;visibility:visible;opacity:1;fill:url(#linearGradient1501);fill-opacity:1;fill-rule:evenodd;stroke:none;stroke-width:1px;stroke-linecap:butt;stroke-linejoin:miter;stroke-miterlimit:4;stroke-dasharray:none;stroke-dashoffset:0;stroke-opacity:1;marker:none;marker-start:none;marker-mid:none;marker-end:none"
       inkscape:connector-curvature="0" />
    <ellipse
       id="path4345"
       style="color:#000000;font-family:'Bitstream Vera Sans';display:inline;overflow:visible;visibility:visible;opacity:1;fill:#e4e4e4;fill-opacity:1;fill-rule:evenodd;stroke:none;stroke-width:1px;stroke-linecap:butt;stroke-linejoin:miter;stroke-miterlimit:4;stroke-dasharray:none;stroke-dashoffset:0;stroke-opacity:1;marker:none;marker-start:none;marker-mid:none;marker-end:none"
       cx="15.71635"
       cy="30.64953"
       rx="3.2278235"
       ry="1.6532754" />
    <path
       transform="matrix(0.633635,0,0,0.633635,5.8371816,8.6289922)"
       d="m 24.572266,19.748047 a 7.2478447,3.7123106 0 0 0 -4.949219,2.535156 7.2478447,3.7123106 0 0 0 4.949219,2.535156 7.2478447,3.7123106 0 0 0 4.949218,-2.535156 7.2478447,3.7123106 0 0 0 -4.949218,-2.535156 z"
       inkscape:href="#path4345"
       id="path5419"
       style="color:#000000;font-family:'Bitstream Vera Sans';display:inline;overflow:visible;visibility:visible;opacity:1;fill:none;fill-opacity:1;fill-rule:evenodd;stroke:url(#linearGradient1476);stroke-width:1.07779324px;stroke-linecap:butt;stroke-linejoin:miter;stroke-miterlimit:4;stroke-dasharray:none;stroke-dashoffset:0;stroke-opacity:1;marker:none;marker-start:none;marker-mid:none;marker-end:none"
       xlink:href="#path4345"
       inkscape:original="M 15.716797 28.996094 A 3.2278235 1.6532754 0 0 0 12.488281 30.650391 A 3.2278235 1.6532754 0 0 0 15.716797 32.302734 A 3.2278235 1.6532754 0 0 0 18.943359 30.650391 A 3.2278235 1.6532754 0 0 0 15.716797 28.996094 z "
       inkscape:radius="0"
       sodipodi:type="inkscape:offset" />
    <path
       id="path4347"
       d="m 15.710177,20.21441 c -1.03633,0 -1.87484,0.426996 -1.874841,0.9578 0,0.01752 0.03895,0.02347 0.04076,0.04076 l -0.04076,0 0,9.048146 0.04076,0 c -0.0018,0.01729 -0.04076,0.02324 -0.04076,0.04076 0,0.530803 0.838511,0.9578 1.874841,0.957799 1.03633,0 1.874841,-0.426996 1.874841,-0.957799 0,-0.01752 -0.03895,-0.02347 -0.04076,-0.04076 l 0.04076,0 0,-9.048146 -0.04076,0 c 0.0018,-0.01729 0.04076,-0.02324 0.04076,-0.04076 0,-0.530803 -0.838511,-0.9578 -1.874841,-0.9578 z"
       style="color:#000000;font-family:'Bitstream Vera Sans';display:inline;overflow:visible;visibility:visible;opacity:1;fill:url(#linearGradient1496);fill-opacity:1;fill-rule:evenodd;stroke:none;stroke-width:1px;stroke-linecap:butt;stroke-linejoin:miter;stroke-miterlimit:4;stroke-dasharray:none;stroke-dashoffset:0;stroke-opacity:1;marker:none;marker-start:none;marker-mid:none;marker-end:none"
       inkscape:connector-curvature="0" />
    <circle
       id="path4641"
       style="color:#000000;font-family:'Bitstream Vera Sans';display:inline;overflow:visible;visibility:visible;opacity:1;fill:url(#radialGradient1520);fill-opacity:1;fill-rule:evenodd;stroke:none;stroke-width:1.07542491;stroke-linecap:butt;stroke-linejoin:miter;stroke-miterlimit:4;stroke-dasharray:none;stroke-dashoffset:0;stroke-opacity:1;marker:none;marker-start:none;marker-mid:none;marker-end:none"
       cx="15.716339"
       cy="21.309769"
       r="4.1828127" />
    <g
       transform="matrix(0.65211864,0,0,0.55407912,0.22116103,19.525088)"
       id="g5049">
      <circle
         transform="matrix(0.510331,0,0,0.354752,-2.87767,29.41695)"
         id="path5039"
         style="color:#000000;font-family:'Bitstream Vera Sans';display:inline;overflow:visible;visibility:visible;opacity:1;fill:url(#linearGradient1482);fill-opacity:1;fill-rule:evenodd;stroke:none;stroke-width:1.07542491;stroke-linecap:butt;stroke-linejoin:miter;stroke-miterlimit:4;stroke-dasharray:none;stroke-dashoffset:0;stroke-opacity:1;marker:none;marker-start:none;marker-mid:none;marker-end:none"
         cx="24.395184"
         cy="8.4020205"
         r="6.6291261" />
      <circle
         style="color:#000000;font-family:'Bitstream Vera Sans';display:inline;overflow:visible;visibility:visible;opacity:1;fill:url(#linearGradient1484);fill-opacity:1;fill-rule:evenodd;stroke:none;stroke-width:1.07542491;stroke-linecap:butt;stroke-linejoin:miter;stroke-miterlimit:4;stroke-dasharray:none;stroke-dashoffset:0;stroke-opacity:1;marker:none;marker-start:none;marker-mid:none;marker-end:none"
         id="path5045"
         transform="matrix(0.430193,0,0,0.299045,-0.922674,29.60375)"
         cx="24.395184"
         cy="8.4020205"
         r="6.6291261" />
    </g>
    <path
       sodipodi:nodetypes="ccccccccccccc"
       id="path2204"
       d="m 15.71091,17.469403 c -2.142129,0 -3.875864,1.752642 -3.875864,3.89477 0,1.5082 1.082534,2.779943 2.340238,3.422104 l 0,4.644366 c -0.56554,0.257846 -1.404096,0.680285 -1.413812,1.096586 0,0 -0.812986,3.35531 -0.812986,3.35531 -0.132346,0.661733 1.257667,1.833945 3.762424,1.833945 2.523746,0 3.970397,-1.191119 3.72461,-2.079731 l -0.794079,-3.166244 c -0.01041,-0.445904 -0.799294,-0.725087 -1.435664,-0.983146 l 0,-4.701086 c 1.257705,-0.642161 2.399902,-1.913904 2.399903,-3.422104 0,-2.142128 -1.752643,-3.89477 -3.89477,-3.89477 z"
       style="color:#000000;font-family:'Bitstream Vera Sans';display:inline;overflow:visible;visibility:visible;opacity:0.52571429;fill:none;fill-opacity:1;fill-rule:evenodd;stroke:url(#linearGradient1489);stroke-width:0.6521185px;stroke-linecap:butt;stroke-linejoin:miter;stroke-miterlimit:4;stroke-dasharray:none;stroke-dashoffset:0;stroke-opacity:1;marker:none;marker-start:none;marker-mid:none;marker-end:none"
       inkscape:connector-curvature="0" />
  </g>
</svg>
