<?xml version="1.0" encoding="UTF-8" standalone="no"?>
<!-- Created with Inkscape (http://www.inkscape.org/) -->

<svg
   xmlns:dc="http://purl.org/dc/elements/1.1/"
   xmlns:cc="http://creativecommons.org/ns#"
   xmlns:rdf="http://www.w3.org/1999/02/22-rdf-syntax-ns#"
   xmlns:svg="http://www.w3.org/2000/svg"
   xmlns="http://www.w3.org/2000/svg"
   xmlns:xlink="http://www.w3.org/1999/xlink"
   xmlns:sodipodi="http://sodipodi.sourceforge.net/DTD/sodipodi-0.dtd"
   xmlns:inkscape="http://www.inkscape.org/namespaces/inkscape"
   width="32"
   height="32"
   id="svg3077"
   sodipodi:version="0.32"
   inkscape:version="0.91 r"
   sodipodi:docname="downloads.svg"
   inkscape:output_extension="org.inkscape.output.svg.inkscape"
   version="1.1">
  <defs
     id="defs3">
    <linearGradient
       id="linearGradient3435"
       gradientUnits="userSpaceOnUse"
       x1="12.2744"
       y1="32.4165"
       x2="35.391201"
       y2="14.2033">
      <stop
         offset="0.0000000"
         style="stop-color:#ffffc8;stop-opacity:1.0000000;"
         id="stop3437" />
      <stop
         offset="1.0000000"
         style="stop-color:#9a91ef;stop-opacity:0.0000000;"
         id="stop3439" />
    </linearGradient>
    <linearGradient
       y2="14.2033"
       x2="35.391201"
       y1="32.4165"
       x1="12.2744"
       gradientUnits="userSpaceOnUse"
       id="linearGradient3421">
      <stop
         id="stop3423"
         style="stop-color:#ffffff;stop-opacity:1.0000000;"
         offset="0.0000000" />
      <stop
         id="stop3427"
         style="stop-color:#b8c04c;stop-opacity:0.0000000;"
         offset="1.0000000" />
    </linearGradient>
    <linearGradient
       id="linearGradient3406"
       gradientUnits="userSpaceOnUse"
       x1="12.2744"
       y1="32.4165"
       x2="35.391201"
       y2="14.2033">
      <stop
         offset="0.0000000"
         style="stop-color:#b307ff;stop-opacity:0.82178217;"
         id="stop3408" />
      <stop
         offset="1.0000000"
         style="stop-color:#f0ff8b;stop-opacity:0.64356434;"
         id="stop3410" />
      <stop
         offset="1.0000000"
         style="stop-color:#ffffff;stop-opacity:0.0000000;"
         id="stop3412" />
    </linearGradient>
    <linearGradient
       y2="14.2033"
       x2="35.391201"
       y1="32.4165"
       x1="12.2744"
       gradientUnits="userSpaceOnUse"
       id="linearGradient3394">
      <stop
         id="stop3396"
         style="stop-color:#fff307;stop-opacity:1.0000000;"
         offset="0.0000000" />
      <stop
         id="stop3398"
         style="stop-color:#166eff;stop-opacity:1.0000000;"
         offset="0.50000000" />
      <stop
         id="stop3400"
         style="stop-color:#ffffff;stop-opacity:0.0000000;"
         offset="1.0000000" />
    </linearGradient>
    <linearGradient
       inkscape:collect="always"
       id="linearGradient6036">
      <stop
         style="stop-color:#ffffff;stop-opacity:1;"
         offset="0"
         id="stop6038" />
      <stop
         style="stop-color:#ffffff;stop-opacity:0;"
         offset="1"
         id="stop6040" />
    </linearGradient>
    <linearGradient
       inkscape:collect="always"
       id="linearGradient6028">
      <stop
         style="stop-color:#ffffff;stop-opacity:1;"
         offset="0"
         id="stop6030" />
      <stop
         style="stop-color:#ffffff;stop-opacity:0;"
         offset="1"
         id="stop6032" />
    </linearGradient>
    <linearGradient
       id="linearGradient4236">
      <stop
         style="stop-color:#ffffff;stop-opacity:0.32673267;"
         offset="0.0000000"
         id="stop4238" />
      <stop
         style="stop-color:#ffffff;stop-opacity:0.60396039;"
         offset="1.0000000"
         id="stop4240" />
    </linearGradient>
    <linearGradient
       id="aigrd2"
       gradientUnits="userSpaceOnUse"
       x1="12.2744"
       y1="32.4165"
       x2="35.391201"
       y2="14.2033">
      <stop
         offset="0"
         style="stop-color:#FBFBFB"
         id="stop3043" />
      <stop
         offset="0.5"
         style="stop-color:#B6B6B6"
         id="stop3045" />
      <stop
         offset="1"
         style="stop-color:#E4E4E4"
         id="stop3047" />
    </linearGradient>
    <linearGradient
       id="aigrd1"
       gradientUnits="userSpaceOnUse"
       x1="14.9966"
       y1="11.1885"
       x2="32.511002"
       y2="34.307499">
      <stop
         offset="0"
         style="stop-color:#EBEBEB"
         id="stop3034" />
      <stop
         offset="0.5"
         style="stop-color:#FFFFFF"
         id="stop3036" />
      <stop
         offset="1"
         style="stop-color:#EBEBEB"
         id="stop3038" />
    </linearGradient>
    <linearGradient
       inkscape:collect="always"
       xlink:href="#aigrd1"
       id="linearGradient3912"
       gradientUnits="userSpaceOnUse"
       x1="14.9966"
       y1="11.1885"
       x2="32.511002"
       y2="34.307499"
       gradientTransform="matrix(0.78220601,0,0,0.78220601,-2.999614,14.973956)" />
    <linearGradient
       inkscape:collect="always"
       xlink:href="#linearGradient4236"
       id="linearGradient4222"
       x1="21.125"
       y1="14.625"
       x2="29"
       y2="28"
       gradientUnits="userSpaceOnUse"
       gradientTransform="matrix(0.82131644,0,0,0.82131644,-3.9382611,14.905514)" />
    <linearGradient
       inkscape:collect="always"
       xlink:href="#linearGradient4236"
       id="linearGradient4224"
       x1="21.125"
       y1="14.625"
       x2="29"
       y2="28"
       gradientUnits="userSpaceOnUse"
       gradientTransform="matrix(0.82131644,0,0,0.82131644,-3.9382611,14.905514)" />
    <linearGradient
       inkscape:collect="always"
       xlink:href="#aigrd2"
       id="linearGradient4242"
       gradientUnits="userSpaceOnUse"
       gradientTransform="matrix(0.78220601,0,0,0.78220601,-2.999614,14.973954)"
       x1="12.2744"
       y1="32.4165"
       x2="35.391201"
       y2="14.2033" />
    <linearGradient
       inkscape:collect="always"
       xlink:href="#linearGradient6028"
       id="linearGradient6034"
       x1="28.702885"
       y1="31.494707"
       x2="17.742729"
       y2="18.366575"
       gradientUnits="userSpaceOnUse"
       gradientTransform="matrix(0.65705315,0,0,0.65705315,-0.16586708,16.674665)" />
    <linearGradient
       inkscape:collect="always"
       xlink:href="#linearGradient6036"
       id="linearGradient6042"
       x1="10.50172"
       y1="3.6100161"
       x2="48.798885"
       y2="54.698483"
       gradientUnits="userSpaceOnUse"
       gradientTransform="matrix(0.65705315,0,0,0.65705315,-0.22394292,16.616588)" />
    <radialGradient
       gradientTransform="matrix(0.5576305,0.62947006,-0.51389376,0.45522876,12.057346,3.13006)"
       gradientUnits="userSpaceOnUse"
       r="21.333334"
       fy="27.569166"
       fx="37.751469"
       cy="27.569166"
       cx="37.751469"
       id="radialGradient3392"
       xlink:href="#linearGradient3394"
       inkscape:collect="always" />
    <radialGradient
       r="21.333334"
       fy="48.23827"
       fx="53.556889"
       cy="48.23827"
       cx="53.556889"
       gradientTransform="matrix(0.10411007,-0.10446357,0.28444291,0.28347967,-2.0135225,26.473089)"
       gradientUnits="userSpaceOnUse"
       id="radialGradient3429"
       xlink:href="#linearGradient3421"
       inkscape:collect="always" />
    <radialGradient
       r="21.333334"
       fy="33.377594"
       fx="16.885271"
       cy="33.377594"
       cx="16.885271"
       gradientTransform="matrix(0.00340634,-0.08072555,0.35779698,0.01509793,0.4050107,33.902054)"
       gradientUnits="userSpaceOnUse"
       id="radialGradient3433"
       xlink:href="#linearGradient3435"
       inkscape:collect="always" />
    <radialGradient
       r="21.333334"
       fy="21.618015"
       fx="35.511295"
       cy="21.618015"
       cx="35.511295"
       gradientTransform="matrix(0.06959244,-0.01257757,0.06885194,0.38096402,11.035931,21.291625)"
       gradientUnits="userSpaceOnUse"
       id="radialGradient3443"
       xlink:href="#linearGradient3435"
       inkscape:collect="always" />
    <radialGradient
       gradientTransform="matrix(-0.03316949,0.00911889,-0.08439191,-0.3069726,23.043998,42.531895)"
       r="21.333334"
       fy="23.914305"
       fx="133.84108"
       cy="23.914305"
       cx="133.84108"
       gradientUnits="userSpaceOnUse"
       id="radialGradient3447"
       xlink:href="#linearGradient3435"
       inkscape:collect="always" />
    <radialGradient
       r="21.333334"
       fy="38.807304"
       fx="26.137741"
       cy="38.807304"
       cx="26.137741"
       gradientTransform="matrix(0.50560306,-0.81638854,0.44042273,0.2727697,-14.533621,43.796006)"
       gradientUnits="userSpaceOnUse"
       id="radialGradient3449"
       xlink:href="#linearGradient3406"
       inkscape:collect="always" />
  </defs>
  <sodipodi:namedview
     id="base"
     pagecolor="#ffffff"
     bordercolor="#666666"
     borderopacity="0.25490196"
     inkscape:pageopacity="0.0"
     inkscape:pageshadow="2"
     inkscape:zoom="5.6568542"
     inkscape:cx="12.398796"
     inkscape:cy="29.17321"
     inkscape:current-layer="layer1"
     showgrid="false"
     inkscape:grid-bbox="true"
     inkscape:document-units="px"
     inkscape:window-width="803"
     inkscape:window-height="804"
     inkscape:window-x="122"
     inkscape:window-y="20"
     inkscape:showpageshadow="false"
     inkscape:window-maximized="0" />
  <metadata
     id="metadata4">
    <rdf:RDF>
      <cc:Work
         rdf:about="">
        <dc:format>image/svg+xml</dc:format>
        <dc:type
           rdf:resource="http://purl.org/dc/dcmitype/StillImage" />
        <dc:title>Media CD-ROM</dc:title>
        <dc:creator>
          <cc:Agent>
            <dc:title>Jakub Steiner</dc:title>
          </cc:Agent>
        </dc:creator>
        <dc:source>http://jimmac.musichall.cz</dc:source>
        <dc:subject>
          <rdf:Bag>
            <rdf:li>cdrom</rdf:li>
            <rdf:li>media</rdf:li>
            <rdf:li>removable</rdf:li>
            <rdf:li>cd</rdf:li>
            <rdf:li>audio</rdf:li>
          </rdf:Bag>
        </dc:subject>
        <cc:license
           rdf:resource="http://creativecommons.org/licenses/by-sa/2.0/" />
      </cc:Work>
      <cc:License
         rdf:about="http://creativecommons.org/licenses/by-sa/2.0/">
        <cc:permits
           rdf:resource="http://web.resource.org/cc/Reproduction" />
        <cc:permits
           rdf:resource="http://web.resource.org/cc/Distribution" />
        <cc:requires
           rdf:resource="http://web.resource.org/cc/Notice" />
        <cc:requires
           rdf:resource="http://web.resource.org/cc/Attribution" />
        <cc:permits
           rdf:resource="http://web.resource.org/cc/DerivativeWorks" />
        <cc:requires
           rdf:resource="http://web.resource.org/cc/ShareAlike" />
      </cc:License>
    </rdf:RDF>
  </metadata>
  <g
     id="layer1"
     inkscape:label="Layer 1"
     inkscape:groupmode="layer"
     transform="translate(0,-16)">
    <g
       transform="matrix(0.78220601,0,0,0.78220601,-2.999614,14.973956)"
       id="Layer_x0020_2"
       style="fill-rule:nonzero;stroke:#000000;stroke-miterlimit:4">
      <g
         style="stroke:none"
         id="g3002">
        <g
           id="g3004">
          <path
             style="opacity:0"
             d="m 24,31 c -11.6,0 -21,2.6 -21,5.9 0,3.3 9.4,5.9 21,5.9 11.6,0 21,-2.6 21,-5.9 C 45,33.6 35.6,31 24,31 Z m 0,7.3 c -2.8,0 -5,-0.6 -5,-1.4 0,-0.8 2.3,-1.4 5,-1.4 2.8,0 5,0.6 5,1.4 0,0.8 -2.3,1.4 -5,1.4 z"
             id="path3006"
             inkscape:connector-curvature="0" />
          <path
             style="opacity:0.00636363"
             d="m 24,31.2 c -11.2,0 -20.2,2.5 -20.2,5.7 0,3.2 9.1,5.7 20.2,5.7 11.2,0 20.2,-2.5 20.2,-5.7 0,-3.2 -9.1,-5.7 -20.2,-5.7 l 0,0 z m 0,7 c -2.7,0 -4.9,-0.6 -4.9,-1.4 0,-0.8 2.2,-1.4 4.9,-1.4 2.7,0 4.9,0.6 4.9,1.4 0,0.8 -2.2,1.4 -4.9,1.4 z"
             id="path3008"
             inkscape:connector-curvature="0" />
          <path
             style="opacity:0.01272727"
             d="m 24,31.4 c -10.8,0 -19.5,2.4 -19.5,5.5 0,3 8.7,5.5 19.5,5.5 10.8,0 19.5,-2.4 19.5,-5.5 0,-3 -8.7,-5.5 -19.5,-5.5 z m 0,6.8 c -2.6,0 -4.7,-0.6 -4.7,-1.3 0,-0.7 2.1,-1.3 4.7,-1.3 2.6,0 4.7,0.6 4.7,1.3 0,0.7 -2.1,1.3 -4.7,1.3 z"
             id="path3010"
             inkscape:connector-curvature="0" />
          <path
             style="opacity:0.0190909"
             d="m 24,31.6 c -10.3,0 -18.7,2.3 -18.7,5.2 0,2.9 8.4,5.2 18.7,5.2 10.3,0 18.7,-2.3 18.7,-5.2 0,-2.9 -8.4,-5.2 -18.7,-5.2 l 0,0 z m 0,6.5 c -2.5,0 -4.5,-0.6 -4.5,-1.3 0,-0.7 2,-1.3 4.5,-1.3 2.5,0 4.5,0.6 4.5,1.3 0,0.7 -2,1.3 -4.5,1.3 z"
             id="path3012"
             inkscape:connector-curvature="0" />
          <path
             style="opacity:0.02545453"
             d="m 24,31.9 c -9.9,0 -17.9,2.2 -17.9,5 0,2.8 8,5 17.9,5 9.9,0 17.9,-2.2 17.9,-5 0,-2.8 -8,-5 -17.9,-5 z m 0,6.2 c -2.4,0 -4.3,-0.5 -4.3,-1.2 0,-0.7 1.9,-1.2 4.3,-1.2 2.4,0 4.3,0.5 4.3,1.2 0,0.7 -1.9,1.2 -4.3,1.2 z"
             id="path3014"
             inkscape:connector-curvature="0" />
          <path
             style="opacity:0.03181817"
             d="m 24,32.1 c -9.5,0 -17.1,2.2 -17.1,4.8 0,2.6 7.7,4.8 17.1,4.8 9.5,0 17.1,-2.1 17.1,-4.8 0,-2.7 -7.7,-4.8 -17.1,-4.8 z m 0,5.9 c -2.3,0 -4.1,-0.5 -4.1,-1.2 0,-0.6 1.8,-1.2 4.1,-1.2 2.3,0 4.1,0.5 4.1,1.2 0,0.6 -1.8,1.2 -4.1,1.2 z"
             id="path3016"
             inkscape:connector-curvature="0" />
          <path
             style="opacity:0.0381818"
             d="m 24,32.3 c -9,0 -16.4,2.1 -16.4,4.6 0,2.5 7.3,4.6 16.4,4.6 9,0 16.4,-2.1 16.4,-4.6 0,-2.5 -7.3,-4.6 -16.4,-4.6 z m 0,5.7 c -2.2,0 -3.9,-0.5 -3.9,-1.1 0,-0.6 1.8,-1.1 3.9,-1.1 2.1,0 3.9,0.5 3.9,1.1 0,0.6 -1.8,1.1 -3.9,1.1 z"
             id="path3018"
             inkscape:connector-curvature="0" />
          <path
             style="opacity:0.04454543"
             d="m 24,32.5 c -8.6,0 -15.6,2 -15.6,4.4 0,2.4 7,4.4 15.6,4.4 8.6,0 15.6,-2 15.6,-4.4 0,-2.4 -7,-4.4 -15.6,-4.4 z m 0,5.4 c -2.1,0 -3.7,-0.5 -3.7,-1 0,-0.6 1.7,-1 3.7,-1 2,0 3.7,0.5 3.7,1 0,0.6 -1.7,1 -3.7,1 z"
             id="path3020"
             inkscape:connector-curvature="0" />
          <path
             style="opacity:0.05090906"
             d="m 24,32.7 c -8.2,0 -14.8,1.9 -14.8,4.2 0,2.3 6.6,4.2 14.8,4.2 8.2,0 14.8,-1.9 14.8,-4.2 0,-2.3 -6.6,-4.2 -14.8,-4.2 l 0,0 z m 0,5.2 c -2,0 -3.6,-0.4 -3.6,-1 0,-0.5 1.6,-1 3.6,-1 2,0 3.6,0.4 3.6,1 0,0.5 -1.6,1 -3.6,1 z"
             id="path3022"
             inkscape:connector-curvature="0" />
          <path
             style="opacity:0.0572727"
             d="m 24,32.9 c -7.8,0 -14.1,1.8 -14.1,3.9 0,2.1 6.3,3.9 14.1,3.9 7.8,0 14.1,-1.8 14.1,-3.9 0,-2.1 -6.3,-3.9 -14.1,-3.9 z m 0,4.9 c -1.9,0 -3.4,-0.4 -3.4,-0.9 0,-0.5 1.5,-0.9 3.4,-0.9 1.9,0 3.4,0.4 3.4,0.9 0,0.5 -1.5,0.9 -3.4,0.9 z"
             id="path3024"
             inkscape:connector-curvature="0" />
          <path
             style="opacity:0.06363633"
             d="m 24,33.1 c -7.3,0 -13.3,1.7 -13.3,3.7 0,2.1 5.9,3.7 13.3,3.7 7.3,0 13.3,-1.7 13.3,-3.7 0,-2.1 -5.9,-3.7 -13.3,-3.7 l 0,0 z m 0,4.7 c -1.8,0 -3.2,-0.4 -3.2,-0.9 0,-0.5 1.4,-0.9 3.2,-0.9 1.8,0 3.2,0.4 3.2,0.9 0,0.5 -1.4,0.9 -3.2,0.9 z"
             id="path3026"
             inkscape:connector-curvature="0" />
          <path
             style="opacity:0.07000002"
             d="m 24,33.4 c -6.9,0 -12.5,1.6 -12.5,3.5 0,1.9 5.6,3.5 12.5,3.5 6.9,0 12.5,-1.6 12.5,-3.5 C 36.5,35 31,33.4 24,33.4 Z m 0,4.3 c -1.7,0 -3,-0.4 -3,-0.8 0,-0.5 1.3,-0.8 3,-0.8 1.7,0 3,0.4 3,0.8 0,0.5 -1.3,0.8 -3,0.8 z"
             id="path3028"
             inkscape:connector-curvature="0" />
        </g>
      </g>
    </g>
    <path
       id="path3040"
       d="m 15.773334,19.35431 c -7.5874,0 -13.6886077,6.101208 -13.6886077,13.688607 0,7.5874 6.1012077,13.688609 13.6886077,13.688609 7.5874,0 13.688609,-6.101209 13.688609,-13.688609 0,-7.587399 -6.101209,-13.688607 -13.688609,-13.688607 l 0,0 z m 0,16.973874 c -1.799074,0 -3.285266,-1.486192 -3.285266,-3.285267 0,-1.799074 1.486192,-3.285265 3.285266,-3.285265 1.799074,0 3.285266,1.486191 3.285266,3.285265 0,1.799075 -1.486192,3.285267 -3.285266,3.285267 z"
       style="fill:url(#linearGradient3912);fill-rule:nonzero;stroke:none;stroke-miterlimit:4"
       inkscape:connector-curvature="0" />
    <path
       id="path3049"
       d="m 15.773334,19.35431 c -7.5874,0 -13.6886077,6.101208 -13.6886077,13.688607 0,7.5874 6.1012077,13.688609 13.6886077,13.688609 7.5874,0 13.688609,-6.101209 13.688609,-13.688609 0,-7.587399 -6.101209,-13.688607 -13.688609,-13.688607 l 0,0 z m 0,16.973874 c -1.799074,0 -3.285266,-1.486192 -3.285266,-3.285267 0,-1.799074 1.486192,-3.285265 3.285266,-3.285265 1.799074,0 3.285266,1.486191 3.285266,3.285265 0,1.799075 -1.486192,3.285267 -3.285266,3.285267 z"
       style="fill:url(#linearGradient4242);fill-rule:nonzero;stroke:#808080;stroke-width:0.65705317;stroke-miterlimit:4;stroke-opacity:1"
       inkscape:connector-curvature="0" />
    <path
       id="path3051"
       d="m 15.773334,26.403944 c -3.707479,0 -6.638974,3.017716 -6.638974,6.638973 0,3.707481 3.017716,6.638974 6.638974,6.638974 3.707479,0 6.638974,-3.017715 6.638974,-6.638974 0,-3.707479 -3.017716,-6.638973 -6.638974,-6.638973 l 0,0 z m 0,10.260232 c -1.98307,0 -3.621258,-1.638188 -3.621258,-3.621259 0,-1.98307 1.638188,-3.621257 3.621258,-3.621257 1.98307,0 3.621258,1.638187 3.621258,3.621257 0,1.983071 -1.638188,3.621259 -3.621258,3.621259 z"
       style="opacity:0.10999995;fill-rule:nonzero;stroke:none;stroke-miterlimit:4"
       inkscape:connector-curvature="0" />
    <path
       style="fill:url(#linearGradient4224);fill-opacity:1;fill-rule:nonzero;stroke:none;stroke-miterlimit:4;stroke-opacity:1"
       d="m 19.436474,20.341576 -2.363152,9.195237 c 0.73899,0.196799 1.329969,0.654077 1.731419,1.286867 l 8.142347,-4.960282 c -1.665793,-2.713442 -4.339317,-4.709801 -7.510614,-5.521822 z"
       id="path3916"
       inkscape:connector-curvature="0" />
    <path
       id="path4214"
       d="m 11.148217,45.373214 3.111315,-8.96976 c -0.720304,-0.256903 -1.271677,-0.761231 -1.61973,-1.42489 l -8.5226767,4.273899 c 1.4370129,2.841237 3.937312,5.050691 7.0310917,6.120751 z"
       style="fill:url(#linearGradient4222);fill-opacity:1;fill-rule:nonzero;stroke:none;stroke-miterlimit:4;stroke-opacity:1"
       inkscape:connector-curvature="0" />
    <path
       style="opacity:0.54644811;fill:none;fill-rule:nonzero;stroke:url(#linearGradient6042);stroke-width:0.65705317;stroke-miterlimit:4;stroke-opacity:1"
       d="m 15.773332,20.034819 c -7.2102022,0 -13.0080963,5.797895 -13.0080963,13.008096 0,7.210202 5.7978941,13.008096 13.0080963,13.008096 7.210201,0 13.008095,-5.797894 13.008095,-13.008096 0,-7.210201 -5.797894,-13.008096 -13.008095,-13.008096 l 0,0 z"
       id="path5264"
       sodipodi:nodetypes="cccccc"
       inkscape:connector-curvature="0" />
    <circle
       style="color:#000000;display:inline;overflow:visible;visibility:visible;opacity:0.67213111;fill:none;fill-opacity:0.31638417;fill-rule:nonzero;stroke:url(#linearGradient6034);stroke-width:0.61141336;stroke-linecap:butt;stroke-linejoin:miter;stroke-miterlimit:4;stroke-dashoffset:0;stroke-opacity:1;marker:none;marker-start:none;marker-mid:none;marker-end:none"
       id="path6026"
       cx="15.804989"
       cy="33.05542"
       r="4.0072331" />
    <path
       style="opacity:0.1142857;fill:url(#radialGradient3392);fill-opacity:1;fill-rule:nonzero;stroke:none;stroke-miterlimit:4;stroke-opacity:1"
       d="m 15.773334,19.35431 c -7.5874,0 -13.6886077,6.101208 -13.6886077,13.688607 0,7.5874 6.1012077,13.688609 13.6886077,13.688609 7.5874,0 13.688609,-6.101209 13.688609,-13.688609 0,-7.587399 -6.101209,-13.688607 -13.688609,-13.688607 l 0,0 z m 0,16.973874 c -1.799074,0 -3.285266,-1.486192 -3.285266,-3.285267 0,-1.799074 1.486192,-3.285265 3.285266,-3.285265 1.799074,0 3.285266,1.486191 3.285266,3.285265 0,1.799075 -1.486192,3.285267 -3.285266,3.285267 z"
       id="path3390"
       inkscape:connector-curvature="0" />
    <path
       id="path3404"
       d="m 15.773334,19.35431 c -7.5874,0 -13.6886077,6.101208 -13.6886077,13.688607 0,7.5874 6.1012077,13.688609 13.6886077,13.688609 7.5874,0 13.688609,-6.101209 13.688609,-13.688609 0,-7.587399 -6.101209,-13.688607 -13.688609,-13.688607 l 0,0 z m 0,16.973874 c -1.799074,0 -3.285266,-1.486192 -3.285266,-3.285267 0,-1.799074 1.486192,-3.285265 3.285266,-3.285265 1.799074,0 3.285266,1.486191 3.285266,3.285265 0,1.799075 -1.486192,3.285267 -3.285266,3.285267 z"
       style="opacity:0.09714284;fill:url(#radialGradient3449);fill-opacity:1;fill-rule:nonzero;stroke:none;stroke-miterlimit:4;stroke-opacity:1"
       inkscape:connector-curvature="0" />
    <path
       style="opacity:0.71428576;fill:url(#radialGradient3429);fill-opacity:1;fill-rule:nonzero;stroke:none;stroke-miterlimit:4;stroke-opacity:1"
       d="m 15.773334,19.35431 c -7.5874,0 -13.6886077,6.101208 -13.6886077,13.688607 0,7.5874 6.1012077,13.688609 13.6886077,13.688609 7.5874,0 13.688609,-6.101209 13.688609,-13.688609 0,-7.587399 -6.101209,-13.688607 -13.688609,-13.688607 l 0,0 z m 0,16.973874 c -1.799074,0 -3.285266,-1.486192 -3.285266,-3.285267 0,-1.799074 1.486192,-3.285265 3.285266,-3.285265 1.799074,0 3.285266,1.486191 3.285266,3.285265 0,1.799075 -1.486192,3.285267 -3.285266,3.285267 z"
       id="path3419"
       inkscape:connector-curvature="0" />
    <path
       id="path3431"
       d="m 15.773334,19.35431 c -7.5874,0 -13.6886077,6.101208 -13.6886077,13.688607 0,7.5874 6.1012077,13.688609 13.6886077,13.688609 7.5874,0 13.688609,-6.101209 13.688609,-13.688609 0,-7.587399 -6.101209,-13.688607 -13.688609,-13.688607 l 0,0 z m 0,16.973874 c -1.799074,0 -3.285266,-1.486192 -3.285266,-3.285267 0,-1.799074 1.486192,-3.285265 3.285266,-3.285265 1.799074,0 3.285266,1.486191 3.285266,3.285265 0,1.799075 -1.486192,3.285267 -3.285266,3.285267 z"
       style="opacity:0.62285713;fill:url(#radialGradient3433);fill-opacity:1;fill-rule:nonzero;stroke:none;stroke-miterlimit:4;stroke-opacity:1"
       inkscape:connector-curvature="0" />
    <path
       style="opacity:0.37142861;fill:url(#radialGradient3443);fill-opacity:1;fill-rule:nonzero;stroke:none;stroke-miterlimit:4;stroke-opacity:1"
       d="m 15.773334,19.35431 c -7.5874,0 -13.6886077,6.101208 -13.6886077,13.688607 0,7.5874 6.1012077,13.688609 13.6886077,13.688609 7.5874,0 13.688609,-6.101209 13.688609,-13.688609 0,-7.587399 -6.101209,-13.688607 -13.688609,-13.688607 l 0,0 z m 0,16.973874 c -1.799074,0 -3.285266,-1.486192 -3.285266,-3.285267 0,-1.799074 1.486192,-3.285265 3.285266,-3.285265 1.799074,0 3.285266,1.486191 3.285266,3.285265 0,1.799075 -1.486192,3.285267 -3.285266,3.285267 z"
       id="path3441"
       inkscape:connector-curvature="0" />
    <path
       id="path3445"
       d="m 15.773334,19.35431 c -7.5874,0 -13.6886077,6.101208 -13.6886077,13.688607 0,7.5874 6.1012077,13.688609 13.6886077,13.688609 7.5874,0 13.688609,-6.101209 13.688609,-13.688609 0,-7.587399 -6.101209,-13.688607 -13.688609,-13.688607 l 0,0 z m 0,16.973874 c -1.799074,0 -3.285266,-1.486192 -3.285266,-3.285267 0,-1.799074 1.486192,-3.285265 3.285266,-3.285265 1.799074,0 3.285266,1.486191 3.285266,3.285265 0,1.799075 -1.486192,3.285267 -3.285266,3.285267 z"
       style="opacity:0.23428572;fill:url(#radialGradient3447);fill-opacity:1;fill-rule:nonzero;stroke:none;stroke-miterlimit:4;stroke-opacity:1"
       inkscape:connector-curvature="0" />
  </g>
</svg>
