<?xml version="1.0" encoding="UTF-8" standalone="no"?>
<svg id="svg2" xml:space="preserve" overflow="visible" height="48" sodipodi:docbase="/home/jimmac/src/cvs/tango-icon-theme/scalable/actions" xmlns:dc="http://purl.org/dc/elements/1.1/" width="48" version="1.0" xmlns:xlink="http://www.w3.org/1999/xlink" sodipodi:docname="go-home.svg" xmlns:sodipodi="http://inkscape.sourceforge.net/DTD/sodipodi-0.dtd" xmlns:cc="http://web.resource.org/cc/" xmlns:rdf="http://www.w3.org/1999/02/22-rdf-syntax-ns#" xmlns="http://www.w3.org/2000/svg" sodipodi:version="0.32" enable-background="new 0 0 128 129.396"><metadata id="metadata367"><rdf:RDF><cc:Work rdf:about=""><dc:format>image/svg+xml</dc:format><dc:type rdf:resource="http://purl.org/dc/dcmitype/StillImage"/><cc:license rdf:resource="http://creativecommons.org/licenses/by-sa/2.0/"/><dc:title>Go Home</dc:title><dc:creator><cc:Agent><dc:title>Jakub Steiner</dc:title></cc:Agent></dc:creator><dc:source>http://jimmac.musichall.cz</dc:source><dc:subject><rdf:Bag><rdf:li>home</rdf:li><rdf:li>return</rdf:li><rdf:li>go</rdf:li><rdf:li>default</rdf:li><rdf:li>user</rdf:li><rdf:li>directory</rdf:li></rdf:Bag></dc:subject><dc:contributor><cc:Agent><dc:title>Tuomas Kuosmanen</dc:title></cc:Agent></dc:contributor></cc:Work><cc:License rdf:about="http://creativecommons.org/licenses/by-sa/2.0/"><cc:permits rdf:resource="http://web.resource.org/cc/Reproduction"/><cc:permits rdf:resource="http://web.resource.org/cc/Distribution"/><cc:requires rdf:resource="http://web.resource.org/cc/Notice"/><cc:requires rdf:resource="http://web.resource.org/cc/Attribution"/><cc:permits rdf:resource="http://web.resource.org/cc/DerivativeWorks"/><cc:requires rdf:resource="http://web.resource.org/cc/ShareAlike"/></cc:License></rdf:RDF></metadata><defs id="defs365"><linearGradient id="linearGradient1514" y2="-42.219" gradientUnits="userSpaceOnUse" x2="14.049" gradientTransform="matrix(.33692 0 0 .16689 17.983 15.462)" y1="166.13" x1="52.006"><stop id="stop17" stop-color="#ccc" offset="0"/><stop id="stop19" stop-color="#fff" offset=".9831"/></linearGradient><linearGradient id="XMLID_39_" y2="35.569" gradientUnits="userSpaceOnUse" x2="64.388" gradientTransform="matrix(.35410 0 0 .35410 1.6387 -.083649)" y1="65.124" x1="64.388">
						<stop id="stop336" stop-color="#fff" offset="0"/>
						<stop id="stop338" stop-color="#FF6200" offset=".8539"/>
						<stop id="stop340" stop-color="#F25D00" offset="1"/>
						<midPointStop id="midPointStop335" stop-color="#FFFFFF" offset="0"/>
						<midPointStop id="midPointStop337" stop-color="#FFFFFF" offset="0.5"/>
						<midPointStop id="midPointStop339" stop-color="#FF6200" offset="0.8539"/>
						<midPointStop id="midPointStop341" stop-color="#FF6200" offset="0.5"/>
						<midPointStop id="midPointStop343" stop-color="#F25D00" offset="1"/>
					</linearGradient><radialGradient id="radialGradient2305" gradientUnits="userSpaceOnUse" cy="24.203" cx="7.5327" gradientTransform="matrix(4.1001 -1.6273e-17 2.1254e-14 4.2013 -25.415 -78.54)" r="8.2452"><stop id="stop2301" stop-color="#fff" offset="0"/><stop id="stop2303" stop-color="#fff" stop-opacity="0" offset="1"/></radialGradient><radialGradient id="radialGradient2313" gradientUnits="userSpaceOnUse" cy="36.778" cx="19.986" gradientTransform="matrix(1.1253 0 0 .98274 -3.4287 .56579)" r="1.0821"><stop id="stop2309" stop-color="#edd400" offset="0"/><stop id="stop2311" stop-color="#980" offset="1"/></radialGradient><radialGradient id="radialGradient2325" gradientUnits="userSpaceOnUse" cy="37.426" cx="20.444" gradientTransform="matrix(1.1253 0 0 .98274 -3.4287 .73111)" r="1.0821"><stop id="stop2321" offset="0"/><stop id="stop2323" stop-opacity="0" offset="1"/></radialGradient><linearGradient id="linearGradient2335" y2="36.035" gradientUnits="userSpaceOnUse" x2="25.058" gradientTransform="matrix(.93711 0 0 1.1193 -.54235 -4.1235)" y1="36.035" x1="12.98"><stop id="stop2331" stop-opacity=".18557" offset="0"/><stop id="stop2333" stop-color="#fff" offset="1"/></linearGradient><radialGradient id="radialGradient2339" gradientUnits="userSpaceOnUse" cy="19.554" cx="11.681" gradientTransform="matrix(4.1001 1.6273e-17 2.1254e-14 -4.2013 -5.1981 105.35)" r="8.2452"><stop id="stop2343" offset="0"/><stop id="stop2345" stop-opacity="0" offset="1"/></radialGradient><radialGradient id="radialGradient2355" gradientUnits="userSpaceOnUse" cy="40.569" cx="24.023" gradientTransform="matrix(1 0 0 .43125 1.1573e-15 23.074)" r="16.287"><stop id="stop2351" offset="0"/><stop id="stop2353" stop-opacity="0" offset="1"/></radialGradient><radialGradient id="radialGradient2374" gradientUnits="userSpaceOnUse" cy="30.443" cx="29.913" gradientTransform="matrix(3.7722 -2.192e-22 1.7328e-22 3.1478 -82.185 -65.246)" r="4.0019"><stop id="stop2370" stop-color="#fff" offset="0"/><stop id="stop2372" stop-color="#fff" stop-opacity="0" offset="1"/></radialGradient><radialGradient id="radialGradient2384" gradientUnits="userSpaceOnUse" cy="10.578" cx="24.195" gradientTransform="matrix(1.1253 -3.5854e-8 4.2698e-8 1.3401 -3.0067 1.3554)" r="15.243"><stop id="stop2380" stop-color="#575757" offset="0"/><stop id="stop2382" stop-color="#575757" stop-opacity="0" offset="1"/></radialGradient><linearGradient id="linearGradient2396" y2="36.112" gradientUnits="userSpaceOnUse" x2="30.604" gradientTransform="matrix(1.1742 0 0 1.1253 -4.2401 -2.0448)" y1="37.338" x1="30.604"><stop id="stop2392" stop-color="#919191" offset="0"/><stop id="stop2394" stop-color="#919191" stop-opacity="0" offset="1"/></linearGradient><linearGradient id="linearGradient2412" y2="41.032" gradientUnits="userSpaceOnUse" x2="19.04" gradientTransform="matrix(.91019 0 0 1.1253 1.7335 -3.0294)" y1="28.939" x1="17.85"><stop id="stop2408" stop-color="#7c7e79" offset="0"/><stop id="stop2414" stop-color="#848681" offset=".17241"/><stop id="stop2410" stop-color="#898c86" offset="1"/></linearGradient></defs><sodipodi:namedview id="base" bordercolor="#666666" pagecolor="#ffffff" stroke="#a40000" borderopacity="0.21568627" showgrid="false" showguides="true" fill="#555753"/>
	<path id="path2347" sodipodi:rx="16.28684" sodipodi:ry="7.0236998" style="color:#000000" sodipodi:type="arc" d="m40.31 40.569a16.287 7.0237 0 1 1 -32.574 0 16.287 7.0237 0 1 1 32.574 0z" opacity=".61364" transform="matrix(1.2659 0 0 .81541 -6.2712 9.1512)" sodipodi:cy="40.56913" sodipodi:cx="24.023088" fill="url(#radialGradient2355)"/><path id="rect1512" style="color:#000000" d="m21.62 8.1834h5.957c0.84 0 13.887 15.436 13.887 16.341l-1.194 18.497c0 0.905-0.676 1.634-1.516 1.634h-29.457c-0.8398 0-1.5158-0.729-1.5158-1.634l-1.1935-18.497c0-0.905 14.192-16.341 15.032-16.341z" sodipodi:nodetypes="ccccccccc" stroke="#757575" fill="url(#linearGradient1514)"/><path id="path2327" d="m22.94 28.332l-0.048 15.759h-11.223l-1.241-15.759h12.512z" fill-rule="evenodd" sodipodi:nodetypes="ccccc" clip-rule="evenodd" fill="url(#linearGradient2335)"/><path id="path5" fill="none" d="m46.964 45.736h-45.325l-0.0003-45.325 45.325-0.00032v45.325z"/><path id="path2357" opacity=".3125" style="color:#000000" d="m21.78 9.4056h5.56c0.783 0 13 14.399 13 15.244l-1.222 18.212c0 0.459-0.143 0.654-0.512 0.654l-29.075 0.014c-0.3684 0-0.5838-0.08-0.5838-0.454l-1.2221-18.426c0-0.845 13.272-15.244 14.055-15.244z" sodipodi:nodetypes="ccccccccc" stroke="#fff" fill="none"/><path id="path23" opacity=".2" d="m7.2075 27.943l-0.0542 2.595 18.368-13.179 15.287 11.154 0.071-0.311-16.37-15.904-17.302 15.645z" fill-rule="evenodd" sodipodi:nodetypes="ccccccc" clip-rule="evenodd" fill="url(#radialGradient2384)"/><path id="path188" d="m21.794 29.535v14.556h-9.047l-1.194-14.556h10.241z" fill-rule="evenodd" sodipodi:nodetypes="ccccc" clip-rule="evenodd" fill="url(#linearGradient2412)"/><path id="path2315" opacity=".40909" d="m19.577 36.448c0.673 0 1.216 0.474 1.216 1.058 0 0.59-0.543 1.069-1.216 1.069-0.672 0-1.219-0.479-1.219-1.069 0.001-0.584 0.547-1.058 1.219-1.058z" fill-rule="evenodd" clip-rule="evenodd" fill="url(#radialGradient2325)"/><path id="path217" d="m19.462 35.932c0.673 0 1.217 0.475 1.217 1.059 0 0.59-0.544 1.068-1.217 1.068-0.672 0-1.218-0.478-1.218-1.068 0-0.584 0.546-1.059 1.218-1.059z" fill-rule="evenodd" clip-rule="evenodd" fill="url(#radialGradient2313)"/><path id="path342" sodipodi:nodetypes="ccccccccccccc" fill="url(#XMLID_39_)" d="m24.448 11.559l18.927 17.17 0.494 0.392 0.404-0.171-0.373-0.762-0.277-0.223-19.175-15.573-19.39 15.744-0.2374 0.144-0.2167 0.707 0.4334 0.129 0.3846-0.309 19.026-17.248z"/><path id="path362" d="m24.33 2.2713l-17.727 15.362-4.7793 9.906 1.9999 2.064s20.407-17.157 20.624-17.328l19.632 17.543 1.899-2.324-4.445-9.851-17.086-15.476-0.118 0.1043z" sodipodi:nodetypes="cccccccccc" stroke="#a40000" fill="#ef2929"/>
<path id="path1536" opacity=".40909" style="color:#000000" d="m6.9956 17.961l-4.4458 9.275 21.819-18.256-0.07-5.8933-17.303 14.874z" sodipodi:nodetypes="ccccc" fill="url(#radialGradient2305)"/><path id="path2337" opacity=".13636" style="color:#000000" d="m24.484 8.751l0.099-5.8411 16.589 15.089 4.232 9.064-20.92-18.312z" sodipodi:nodetypes="ccccc" fill="url(#radialGradient2339)"/><path id="rect2359" style="color:#000000" d="m27.097 28.898h9.699c0.137 0 0.248 0.11 0.248 0.247l-0.563 9.677c0 0.137-0.11 0.247-0.247 0.247h-9.137c-0.137 0-0.247-0.11-0.247-0.247v-9.677c0-0.137 0.11-0.247 0.247-0.247z" sodipodi:nodetypes="ccccccccc" stroke="#757575" fill="#3465a4"/><path id="rect2361" opacity=".31818" style="color:#000000" d="m27.102 27.72h9.689c0.771 0 1.391 0.62 1.391 1.391l-0.633 9.705c0 0.771-0.62 1.391-1.391 1.391h-9.056c-0.77 0-1.391-0.62-1.391-1.391v-9.705c0-0.771 0.621-1.391 1.391-1.391z" sodipodi:nodetypes="ccccccccc" stroke="#fff" fill="none"/><path id="rect2363" opacity=".39773" style="color:#000000" d="m27.444 34.87c3.638 0.331 5.647-1.446 9.006-1.553l0.025-3.85-9.05-0.006 0.019 5.409z" sodipodi:nodetypes="ccccc" fill="url(#radialGradient2374)"/><path id="rect2376" style="color:#000000" d="m30.962 28.915h2.321l-0.07 10.097h-2.532l0.281-10.097z" sodipodi:nodetypes="ccccc" fill="#757575"/><path id="path2386" sodipodi:nodetypes="ccccccc" stroke="url(#linearGradient2396)" fill="#aaa" style="color:#000000" d="m27.052 38.515l-1.194 0.871v2.039h11.674v-1.89l-1.349-1.02h-9.131z"/><path id="path2388" style="color:#000000" d="m27.424 38.88l-1.09 0.854h10.626l-0.753-0.89-8.783 0.036z" sodipodi:nodetypes="ccccc" fill="#ddd"/></svg>