<?xml version="1.0" encoding="UTF-8" standalone="no"?>
<svg xmlns:rdf="http://www.w3.org/1999/02/22-rdf-syntax-ns#" xmlns="http://www.w3.org/2000/svg" xmlns:sodipodi="http://inkscape.sourceforge.net/DTD/sodipodi-0.dtd" height="162.32" width="220" xmlns:cc="http://web.resource.org/cc/" xmlns:xlink="http://www.w3.org/1999/xlink" xmlns:dc="http://purl.org/dc/elements/1.1/">
 <defs>
  <linearGradient id="linearGradient1505" y2="31.027" gradientUnits="userSpaceOnUse" x2="22.178" y1="33.357" x1="17.397">
   <stop id="stop2575" stop-color="#fff" offset="0"/>
   <stop id="stop2577" stop-color="#fff" stop-opacity="0" offset="1"/>
  </linearGradient>
  <linearGradient id="linearGradient1503" y2="7.4121" gradientUnits="userSpaceOnUse" x2="40.024" gradientTransform="matrix(1.3709 0 0 -1.4646 2.5251 33.713)" y1="4.2507" x1="11.842">
   <stop id="stop9751" stop-color="#fff" offset="0"/>
   <stop id="stop9753" stop-color="#ededed" offset="1"/>
  </linearGradient>
  <linearGradient id="linearGradient1501" y2="-7.5275" xlink:href="#linearGradient15107" gradientUnits="userSpaceOnUse" x2="17.178" gradientTransform="matrix(1.5706 0 0 -1.2315 2.9734 33.335)" y1="20.22" x1="10.027"/>
  <linearGradient id="linearGradient1497" y2="11.982" xlink:href="#linearGradient15107" gradientUnits="userSpaceOnUse" x2="13.847" gradientTransform="matrix(1.296 0 0 -1.4369 3.7466 33.205)" y1="11.485" x1="11.742"/>
  <radialGradient id="radialGradient1491" gradientUnits="userSpaceOnUse" cy="38.712" cx="27.741" gradientTransform="matrix(.62993 .45937 -.14768 .24851 16.517 9.0537)" r="17.978">
   <stop id="stop2276" stop-opacity=".12871" offset="0"/>
   <stop id="stop2278" stop-opacity="0" offset="1"/>
  </radialGradient>
  <linearGradient id="linearGradient1487" y2="52.091" gradientUnits="userSpaceOnUse" x2="9.8855" gradientTransform="matrix(2.4548 0 0 0.762 2.8818 .33739)" y1="38.071" x1="9.1643">
   <stop id="stop2626" stop-color="#dfe0df" offset="0"/>
   <stop id="stop2630" stop-color="#a6b0a6" offset=".23810"/>
   <stop id="stop2628" stop-color="#b5beb5" offset="1"/>
  </linearGradient>
  <linearGradient id="linearGradient15107">
   <stop id="stop15109" stop-color="#fff" offset="0"/>
   <stop id="stop15111" stop-color="#e2e2e2" offset="1"/>
  </linearGradient>
  <linearGradient id="linearGradient1483" y2="26.023" xlink:href="#linearGradient15107" gradientUnits="userSpaceOnUse" x2="18.475" gradientTransform="matrix(1.3435 0 0 1.5058 2.8795 -2.266)" y1="4.7462" x1="11.573"/>
 </defs>
 <g transform="matrix(5.2682 0 0 5.2748 -20.798 -68.901)">
  <path id="path12723" stroke-linejoin="round" d="m6.3438 15.455v25.987h36.968l-0.062-25.888v-0.033c-0.001-0.006 0.001-0.026 0-0.033s-0.029-0.026-0.031-0.033h-36.875z" fill-rule="evenodd" stroke="#888a85" stroke-width=".99466" fill="url(#linearGradient1483)"/>
  <path id="path1634" d="m20.491 29.059l-13.396 10.972 13.909-9.605h9.018l12.419 9.483-11.864-10.85h-10.086z" fill-rule="evenodd" fill="url(#linearGradient1487)"/>
  <path id="path15103" d="m7.3438 16.734c-0.0067 0.013 0.0053 0.02 0 0.031-0.0024 0.006-0.0293 0.027-0.0313 0.032-0.0017 0.005 0.0014 0.027 0 0.032-0.001 0.004 0.0007 0.027 0 0.031l0.0313 23.474h34.937l-0.062-23.347c-0.001-0.004 0.001-0.028 0-0.032-0.015-0.048-0.042-0.132-0.094-0.221h-34.781z" stroke="#fff" stroke-width=".99466" fill="none"/>
  <path id="path2563" d="m23.329 32.997c-2.392-0.447-15.429-14.226-16.732-16.625-0.0154-0.029-0.041-0.083-0.0523-0.108h34.513c-0.277 2.502-7.524 16.505-9.561 16.733h-0.03-8.021c-0.033 0-0.077 0.007-0.117 0z" fill-rule="evenodd" fill="url(#radialGradient1491)"/>
  <path id="path1613" stroke-linejoin="round" d="m20.775 31.085c-2.368-0.391-12.83-12.466-13.656-14.568-0.0097-0.025-0.0243-0.073-0.0306-0.095h35.543c-0.824 2.193-11.299 14.464-13.445 14.663-0.009 0.001-0.022 0-0.031 0h-8.26c-0.034 0-0.081 0.007-0.12 0z" fill-rule="evenodd" stroke="#989898" stroke-width=".85203" fill="url(#linearGradient1497)"/>
  <path id="path18153" d="m20.625 30.49c-2.106-0.49-12.902-12.502-13.594-14.024-0.0021-0.006 0.0026-0.026 0.0004-0.032-0.0054-0.016-0.0291-0.052-0.0312-0.065 0-0.003-0.0004-0.029 0-0.032 0.0011-0.002 0.0297 0.002 0.0312 0l0.0938-0.097h35.469c-0.003 0.025-0.023 0.067-0.031 0.097-0.008 0.024-0.021 0.07-0.032 0.097-0.922 2.181-11.508 13.767-13.343 14.056-0.015 0.002-0.049 0-0.063 0h-8.375c-0.03-0.001-0.09 0.009-0.125 0z" fill-rule="evenodd" fill="url(#linearGradient1501)"/>
  <path id="path1616" d="m20.875 30.051c-2.448-0.549-12.171-11.617-13.344-13.599h34.594c-1.49 2.333-11.046 13.412-13.156 13.599-0.009 0.001-0.023 0-0.031 0h-7.907c-0.026 0-0.064 0.004-0.093 0-0.02-0.003-0.042 0.005-0.063 0z" stroke="url(#linearGradient1503)" stroke-width=".85203" fill="none"/>
  <path id="path1636" d="m20.96 30.447l-11.942 8.271 2.219 0.006 9.999-6.869 8.821-1.423-9.097 0.015z" fill-rule="evenodd" fill="url(#linearGradient1505)"/>
 </g>
</svg>