<?xml version="1.0" encoding="UTF-8" standalone="no"?>
<svg
   xmlns:dc="http://purl.org/dc/elements/1.1/"
   xmlns:cc="http://creativecommons.org/ns#"
   xmlns:rdf="http://www.w3.org/1999/02/22-rdf-syntax-ns#"
   xmlns:svg="http://www.w3.org/2000/svg"
   xmlns="http://www.w3.org/2000/svg"
   xmlns:xlink="http://www.w3.org/1999/xlink"
   xmlns:sodipodi="http://sodipodi.sourceforge.net/DTD/sodipodi-0.dtd"
   xmlns:inkscape="http://www.inkscape.org/namespaces/inkscape"
   height="32"
   width="32"
   id="svg2"
   version="1.1"
   inkscape:version="0.91 r"
   sodipodi:docname="mail.svg">
  <metadata
     id="metadata37">
    <rdf:RDF>
      <cc:Work
         rdf:about="">
        <dc:format>image/svg+xml</dc:format>
        <dc:type
           rdf:resource="http://purl.org/dc/dcmitype/StillImage" />
        <dc:title></dc:title>
      </cc:Work>
    </rdf:RDF>
  </metadata>
  <sodipodi:namedview
     pagecolor="#ffffff"
     bordercolor="#666666"
     borderopacity="1"
     objecttolerance="10"
     gridtolerance="10"
     guidetolerance="10"
     inkscape:pageopacity="0"
     inkscape:pageshadow="2"
     inkscape:window-width="1551"
     inkscape:window-height="931"
     id="namedview35"
     showgrid="false"
     inkscape:zoom="8.2246029"
     inkscape:cx="45.021069"
     inkscape:cy="18.930207"
     inkscape:window-x="0"
     inkscape:window-y="0"
     inkscape:window-maximized="0"
     inkscape:current-layer="svg2" />
  <defs
     id="defs4">
    <linearGradient
       id="linearGradient1505"
       y2="31.027"
       gradientUnits="userSpaceOnUse"
       x2="22.177999"
       y1="33.356998"
       x1="17.396999">
      <stop
         id="stop2575"
         stop-color="#fff"
         offset="0" />
      <stop
         id="stop2577"
         stop-color="#fff"
         stop-opacity="0"
         offset="1" />
    </linearGradient>
    <linearGradient
       id="linearGradient1503"
       y2="7.4120998"
       gradientUnits="userSpaceOnUse"
       x2="40.023998"
       gradientTransform="matrix(1.3709,0,0,-1.4646,2.5251,33.713)"
       y1="4.2507"
       x1="11.842">
      <stop
         id="stop9751"
         stop-color="#fff"
         offset="0" />
      <stop
         id="stop9753"
         stop-color="#ededed"
         offset="1" />
    </linearGradient>
    <linearGradient
       id="linearGradient1501"
       y2="-7.5275002"
       xlink:href="#linearGradient15107"
       gradientUnits="userSpaceOnUse"
       x2="17.177999"
       gradientTransform="matrix(1.5706,0,0,-1.2315,2.9734,33.335)"
       y1="20.219999"
       x1="10.027" />
    <linearGradient
       id="linearGradient1497"
       y2="11.982"
       xlink:href="#linearGradient15107"
       gradientUnits="userSpaceOnUse"
       x2="13.847"
       gradientTransform="matrix(1.296,0,0,-1.4369,3.7466,33.205)"
       y1="11.485"
       x1="11.742" />
    <radialGradient
       id="radialGradient1491"
       gradientUnits="userSpaceOnUse"
       cy="38.712002"
       cx="27.740999"
       gradientTransform="matrix(0.62993,0.45937,-0.14768,0.24851,16.517,9.0537)"
       r="17.978001">
      <stop
         id="stop2276"
         stop-opacity=".12871"
         offset="0" />
      <stop
         id="stop2278"
         stop-opacity="0"
         offset="1" />
    </radialGradient>
    <linearGradient
       id="linearGradient1487"
       y2="52.091"
       gradientUnits="userSpaceOnUse"
       x2="9.8855"
       gradientTransform="matrix(2.4548,0,0,0.762,2.8818,0.33739)"
       y1="38.070999"
       x1="9.1643">
      <stop
         id="stop2626"
         stop-color="#dfe0df"
         offset="0" />
      <stop
         id="stop2630"
         stop-color="#a6b0a6"
         offset=".23810" />
      <stop
         id="stop2628"
         stop-color="#b5beb5"
         offset="1" />
    </linearGradient>
    <linearGradient
       id="linearGradient15107">
      <stop
         id="stop15109"
         stop-color="#fff"
         offset="0" />
      <stop
         id="stop15111"
         stop-color="#e2e2e2"
         offset="1" />
    </linearGradient>
    <linearGradient
       id="linearGradient1483"
       y2="26.023001"
       xlink:href="#linearGradient15107"
       gradientUnits="userSpaceOnUse"
       x2="18.475"
       gradientTransform="matrix(1.3435,0,0,1.5058,2.8795,-2.266)"
       y1="4.7462001"
       x1="11.573" />
  </defs>
  <g
     transform="matrix(0.73136122,0,0,0.73227752,-2.4191842,-4.2507179)"
     id="g25">
    <path
       id="path12723"
       d="m 6.3438,15.455 0,25.987 36.968,0 -0.062,-25.888 0,-0.033 c -10e-4,-0.006 10e-4,-0.026 0,-0.033 -10e-4,-0.007 -0.029,-0.026 -0.031,-0.033 l -36.875,0 z"
       inkscape:connector-curvature="0"
       style="fill:url(#linearGradient1483);fill-rule:evenodd;stroke:#888a85;stroke-width:0.99466002;stroke-linejoin:round" />
    <path
       id="path1634"
       d="m 20.491,29.059 -13.396,10.972 13.909,-9.605 9.018,0 12.419,9.483 -11.864,-10.85 -10.086,0 z"
       inkscape:connector-curvature="0"
       style="fill:url(#linearGradient1487);fill-rule:evenodd" />
    <path
       id="path15103"
       d="m 7.3438,16.734 c -0.0067,0.013 0.0053,0.02 0,0.031 -0.0024,0.006 -0.0293,0.027 -0.0313,0.032 -0.0017,0.005 0.0014,0.027 0,0.032 -0.001,0.004 7e-4,0.027 0,0.031 l 0.0313,23.474 34.937,0 -0.062,-23.347 c -0.001,-0.004 10e-4,-0.028 0,-0.032 -0.015,-0.048 -0.042,-0.132 -0.094,-0.221 l -34.781,0 z"
       inkscape:connector-curvature="0"
       style="fill:none;stroke:#ffffff;stroke-width:0.99466002" />
    <path
       id="path2563"
       d="M 23.329,32.997 C 20.937,32.55 7.9,18.771 6.597,16.372 6.5816,16.343 6.556,16.289 6.5447,16.264 l 34.513,0 c -0.277,2.502 -7.524,16.505 -9.561,16.733 l -0.03,0 -8.021,0 c -0.033,0 -0.077,0.007 -0.117,0 z"
       inkscape:connector-curvature="0"
       style="fill:url(#radialGradient1491);fill-rule:evenodd" />
    <path
       id="path1613"
       d="M 20.775,31.085 C 18.407,30.694 7.945,18.619 7.119,16.517 7.1093,16.492 7.0947,16.444 7.0884,16.422 l 35.543,0 c -0.824,2.193 -11.299,14.464 -13.445,14.663 -0.009,10e-4 -0.022,0 -0.031,0 l -8.26,0 c -0.034,0 -0.081,0.007 -0.12,0 z"
       inkscape:connector-curvature="0"
       style="fill:url(#linearGradient1497);fill-rule:evenodd;stroke:#989898;stroke-width:0.85202998;stroke-linejoin:round" />
    <path
       id="path18153"
       d="M 20.625,30.49 C 18.519,30 7.723,17.988 7.031,16.466 7.0289,16.46 7.0336,16.44 7.0314,16.434 7.026,16.418 7.0023,16.382 7.0002,16.369 c 0,-0.003 -4e-4,-0.029 0,-0.032 0.0011,-0.002 0.0297,0.002 0.0312,0 l 0.0938,-0.097 35.469,0 c -0.003,0.025 -0.023,0.067 -0.031,0.097 -0.008,0.024 -0.021,0.07 -0.032,0.097 -0.922,2.181 -11.508,13.767 -13.343,14.056 -0.015,0.002 -0.049,0 -0.063,0 l -8.375,0 c -0.03,-10e-4 -0.09,0.009 -0.125,0 z"
       inkscape:connector-curvature="0"
       style="fill:url(#linearGradient1501);fill-rule:evenodd" />
    <path
       id="path1616"
       d="M 20.875,30.051 C 18.427,29.502 8.704,18.434 7.531,16.452 l 34.594,0 c -1.49,2.333 -11.046,13.412 -13.156,13.599 -0.009,0.001 -0.023,0 -0.031,0 l -7.907,0 c -0.026,0 -0.064,0.004 -0.093,0 -0.02,-0.003 -0.042,0.005 -0.063,0 z"
       inkscape:connector-curvature="0"
       style="fill:none;stroke:url(#linearGradient1503);stroke-width:0.85202998" />
    <path
       id="path1636"
       d="m 20.96,30.447 -11.942,8.271 2.219,0.006 9.999,-6.869 8.821,-1.423 -9.097,0.015 z"
       inkscape:connector-curvature="0"
       style="fill:url(#linearGradient1505);fill-rule:evenodd" />
  </g>
</svg>
