<?xml version="1.0" encoding="UTF-8" standalone="no"?>
<!-- Generator: Adobe Illustrator 9.0, SVG Export Plug-In  -->

<svg
   xmlns:dc="http://purl.org/dc/elements/1.1/"
   xmlns:cc="http://creativecommons.org/ns#"
   xmlns:rdf="http://www.w3.org/1999/02/22-rdf-syntax-ns#"
   xmlns:svg="http://www.w3.org/2000/svg"
   xmlns="http://www.w3.org/2000/svg"
   xmlns:xlink="http://www.w3.org/1999/xlink"
   xmlns:sodipodi="http://sodipodi.sourceforge.net/DTD/sodipodi-0.dtd"
   xmlns:inkscape="http://www.inkscape.org/namespaces/inkscape"
   width="32"
   height="32"
   xml:space="preserve"
   id="svg16168"
   sodipodi:version="0.32"
   inkscape:version="0.91 r"
   sodipodi:docname="Image-x-generic.svg"
   version="1.1"><metadata
     id="metadata16236"><rdf:RDF><cc:Work
         rdf:about=""><dc:format>image/svg+xml</dc:format><dc:type
           rdf:resource="http://purl.org/dc/dcmitype/StillImage" /><dc:title>Genric Image</dc:title><dc:creator><cc:Agent><dc:title>Jakub Steiner</dc:title></cc:Agent></dc:creator><dc:subject><rdf:Bag><rdf:li>image</rdf:li><rdf:li>picture</rdf:li><rdf:li>snapshot</rdf:li><rdf:li>photo</rdf:li></rdf:Bag></dc:subject><cc:license
           rdf:resource="http://creativecommons.org/licenses/by-sa/2.0/" /></cc:Work><cc:License
         rdf:about="http://creativecommons.org/licenses/by/2.0/"><cc:permits
           rdf:resource="http://web.resource.org/cc/Reproduction" /><cc:permits
           rdf:resource="http://web.resource.org/cc/Distribution" /><cc:requires
           rdf:resource="http://web.resource.org/cc/Notice" /><cc:requires
           rdf:resource="http://web.resource.org/cc/Attribution" /><cc:permits
           rdf:resource="http://web.resource.org/cc/DerivativeWorks" /><cc:requires
           rdf:resource="http://web.resource.org/cc/ShareAlike" /></cc:License></rdf:RDF></metadata><defs
     id="defs16234"><linearGradient
       id="linearGradient8171"><stop
         style="stop-color:#bbbdba;stop-opacity:1;"
         offset="0"
         id="stop8173" /><stop
         style="stop-color:#70746e;stop-opacity:1;"
         offset="1"
         id="stop8175" /></linearGradient><linearGradient
       inkscape:collect="always"
       id="linearGradient8155"><stop
         style="stop-color:#ffffff;stop-opacity:1;"
         offset="0"
         id="stop8157" /><stop
         style="stop-color:#ffffff;stop-opacity:0;"
         offset="1"
         id="stop8159" /></linearGradient><linearGradient
       id="linearGradient2224"><stop
         style="stop-color:#7c7c7c;stop-opacity:1;"
         offset="0"
         id="stop2226" /><stop
         style="stop-color:#b8b8b8;stop-opacity:1;"
         offset="1"
         id="stop2228" /></linearGradient><linearGradient
       inkscape:collect="always"
       id="linearGradient2251"><stop
         style="stop-color:#ffffff;stop-opacity:1;"
         offset="0"
         id="stop2253" /><stop
         style="stop-color:#ffffff;stop-opacity:0;"
         offset="1"
         id="stop2255" /></linearGradient><linearGradient
       id="linearGradient7648"
       gradientUnits="userSpaceOnUse"
       x1="21.9326"
       y1="24.627399"
       x2="21.9326"
       y2="7.1090999"><stop
         offset="0"
         style="stop-color:#8595bc;stop-opacity:1;"
         id="stop7650" /><stop
         offset="1"
         style="stop-color:#041a3b;stop-opacity:1;"
         id="stop7652" /></linearGradient><linearGradient
       id="linearGradient2392"><stop
         id="stop2394"
         offset="0.0000000"
         style="stop-color:#715b26;stop-opacity:1.0000000;" /><stop
         id="stop2396"
         offset="1.0000000"
         style="stop-color:#312710;stop-opacity:1.0000000;" /></linearGradient><linearGradient
       inkscape:collect="always"
       id="linearGradient12129"><stop
         style="stop-color:#000000;stop-opacity:1;"
         offset="0"
         id="stop12131" /><stop
         style="stop-color:#000000;stop-opacity:0;"
         offset="1"
         id="stop12133" /></linearGradient><linearGradient
       y2="36.032799"
       x2="31.081301"
       y1="3.7319"
       x1="12.4873"
       gradientUnits="userSpaceOnUse"
       id="aigrd1"><stop
         id="stop16177"
         style="stop-color:#D2D2D2;stroke-dasharray:none;stroke-miterlimit:4.0000000;stroke-width:1.2166667"
         offset="0" /><stop
         id="stop16179"
         style="stop-color:#EDEDED;stroke-dasharray:none;stroke-miterlimit:4.0000000;stroke-width:1.2166667"
         offset="1" /></linearGradient><linearGradient
       y2="22.5769"
       x2="21.9168"
       y1="30.341299"
       x1="21.877001"
       gradientUnits="userSpaceOnUse"
       id="aigrd2"><stop
         id="stop16184"
         style="stop-color:#5e4f07;stop-opacity:1.0000000;"
         offset="0.0000000" /><stop
         id="stop16186"
         style="stop-color:#348a31;stop-opacity:1.0000000;"
         offset="1.0000000" /></linearGradient><linearGradient
       y2="7.1090999"
       x2="21.9326"
       y1="24.627399"
       x1="21.9326"
       gradientUnits="userSpaceOnUse"
       id="aigrd3"><stop
         id="stop16199"
         style="stop-color:#D0D6E5;stroke-dasharray:none;stroke-miterlimit:4.0000000;stroke-width:1.2166667"
         offset="0" /><stop
         id="stop16201"
         style="stop-color:#093A80;stroke-dasharray:none;stroke-miterlimit:4.0000000;stroke-width:1.2166667"
         offset="1" /></linearGradient><radialGradient
       inkscape:collect="always"
       xlink:href="#linearGradient12129"
       id="radialGradient12135"
       cx="24.218407"
       cy="41.63604"
       fx="24.218407"
       fy="41.63604"
       r="22.097088"
       gradientTransform="matrix(0.66457329,0,0,0.12228149,-0.32138368,19.984793)"
       gradientUnits="userSpaceOnUse" /><linearGradient
       inkscape:collect="always"
       xlink:href="#linearGradient7648"
       id="linearGradient7671"
       gradientUnits="userSpaceOnUse"
       gradientTransform="matrix(1.098989,0,0,-0.797757,-1.953865,37.324)"
       x1="21.9326"
       y1="24.627399"
       x2="21.9326"
       y2="7.1090999" /><linearGradient
       inkscape:collect="always"
       xlink:href="#aigrd3"
       id="linearGradient7673"
       gradientUnits="userSpaceOnUse"
       gradientTransform="matrix(1.098989,0,0,1.106697,-1.953865,-4.922453)"
       x1="21.9326"
       y1="24.627399"
       x2="21.9326"
       y2="7.1090999" /><linearGradient
       inkscape:collect="always"
       xlink:href="#aigrd1"
       id="linearGradient8148"
       gradientUnits="userSpaceOnUse"
       gradientTransform="matrix(0.95300009,0,0,0.65798537,35.371621,1.2759242)"
       x1="12.4873"
       y1="3.7319"
       x2="31.081301"
       y2="36.032799" /><radialGradient
       inkscape:collect="always"
       xlink:href="#linearGradient8155"
       id="radialGradient8161"
       cx="12.700491"
       cy="10.404876"
       fx="12.700491"
       fy="10.404876"
       r="19.96875"
       gradientTransform="matrix(1.1367732,0,0,0.74754461,-7.0879666,0.58720288)"
       gradientUnits="userSpaceOnUse" /><linearGradient
       inkscape:collect="always"
       xlink:href="#linearGradient2251"
       id="linearGradient8166"
       gradientUnits="userSpaceOnUse"
       gradientTransform="matrix(0.66457329,0,0,0.66457329,4.0209741,-2.8768015)"
       x1="33.396004"
       y1="36.921333"
       x2="34.170048"
       y2="38.070381" /><linearGradient
       inkscape:collect="always"
       xlink:href="#linearGradient2224"
       id="linearGradient8169"
       gradientUnits="userSpaceOnUse"
       gradientTransform="matrix(0.66457329,0,0,0.66457329,4.0209741,-2.6275865)"
       x1="35.996582"
       y1="40.458221"
       x2="33.664921"
       y2="37.770721" /><linearGradient
       inkscape:collect="always"
       xlink:href="#linearGradient8171"
       id="linearGradient8177"
       x1="42.1875"
       y1="31"
       x2="45"
       y2="39.984692"
       gradientUnits="userSpaceOnUse"
       gradientTransform="matrix(0.66457329,0,0,0.66457329,0.60003656,-0.61074483)" /></defs><sodipodi:namedview
     inkscape:window-height="1071"
     inkscape:window-width="1238"
     inkscape:pageshadow="2"
     inkscape:pageopacity="0.0"
     borderopacity="0.07058824"
     bordercolor="#666666"
     pagecolor="#ffffff"
     id="base"
     inkscape:zoom="5.6568542"
     inkscape:cx="66.427075"
     inkscape:cy="15.811218"
     inkscape:window-x="514"
     inkscape:window-y="211"
     inkscape:current-layer="svg16168"
     showgrid="false"
     inkscape:showpageshadow="false"
     inkscape:window-maximized="0" /><ellipse
     style="color:#000000;display:block;visibility:visible;opacity:0.52763821;fill:url(#radialGradient12135);fill-opacity:1;fill-rule:nonzero;stroke:none;stroke-width:1;stroke-linecap:butt;stroke-linejoin:miter;stroke-miterlimit:4;stroke-dasharray:none;stroke-dashoffset:0;stroke-opacity:0.61658032;marker:none;marker-start:none;marker-mid:none;marker-end:none"
     id="path12127"
     cx="15.773523"
     cy="25.076109"
     rx="14.685135"
     ry="2.7020648" /><path
     style="color:#000000;display:inline;overflow:visible;visibility:visible;fill:url(#linearGradient8148);fill-opacity:1;fill-rule:nonzero;stroke:#bbbfbb;stroke-width:0.66457325;stroke-linecap:butt;stroke-linejoin:miter;stroke-miterlimit:4;stroke-dashoffset:0;stroke-opacity:1;marker:none;marker-start:none;marker-mid:none;marker-end:none"
     d="m 2.4061949,3.6789261 27.0227281,0 c 0.414194,0 0.747644,0.3334495 0.747644,0.7476447 l 0,15.8838372 c 0,0.414196 -5.620098,5.329407 -6.034292,5.329407 l -21.7360801,0 c -0.4141949,0 -0.7476441,-0.33345 -0.7476441,-0.747645 l 0,-20.4655992 c 0,-0.4141952 0.3334492,-0.7476447 0.7476441,-0.7476447 z"
     id="rect7603"
     sodipodi:nodetypes="ccccccccc"
     inkscape:connector-curvature="0" /><g
     id="g7654"
     transform="matrix(0.70097463,0,0,0.69779465,0.05864392,2.3698743)"><path
       id="path7644"
       d="m 5.512695,30 34.130539,0 0,-10.372625 -34.130539,0 0,10.372625 z"
       style="fill:url(#linearGradient7671);fill-opacity:1;fill-rule:nonzero;stroke:none;stroke-width:1.2166667;stroke-miterlimit:4"
       inkscape:connector-curvature="0" /><path
       style="fill:url(#linearGradient7673);fill-rule:nonzero;stroke:none;stroke-width:1.2166667;stroke-miterlimit:4"
       d="m 5.512695,5.237844 34.130539,0 0,14.389531 -34.130539,0 0,-14.389531 z"
       id="path16203"
       inkscape:connector-curvature="0" /><g
       id="g16205"
       style="fill-rule:nonzero;stroke:#000000;stroke-width:1.15611064;stroke-miterlimit:4"
       transform="matrix(1.189217,0,0,1.189217,-3.525355,-6.535408)"><g
         id="g16207"><path
           style="opacity:0.04999994;fill:#e8f52f;stroke:none"
           d="m 18.4,15.4 c 0,2.2 -1.8,4.1 -4.1,4.1 -2.2,0 -4.1,-1.8 -4.1,-4.1 0,-2.2 1.8,-4.1 4.1,-4.1 2.2,0 4.1,1.8 4.1,4.1 z"
           id="path16209"
           inkscape:connector-curvature="0" /><path
           style="opacity:0.20829994;fill:#ecf751;stroke:none"
           d="m 18,15.4 c 0,2 -1.6,3.7 -3.7,3.7 -2,0 -3.7,-1.6 -3.7,-3.7 0,-2 1.6,-3.7 3.7,-3.7 2,0 3.7,1.6 3.7,3.7 l 0,0 z"
           id="path16211"
           inkscape:connector-curvature="0" /><path
           style="opacity:0.36669994;fill:#f0f972;stroke:none"
           d="m 17.6,15.4 c 0,1.8 -1.5,3.3 -3.3,3.3 -1.8,0 -3.3,-1.5 -3.3,-3.3 0,-1.8 1.5,-3.3 3.3,-3.3 1.8,0 3.3,1.5 3.3,3.3 l 0,0 z"
           id="path16213"
           inkscape:connector-curvature="0" /><path
           style="opacity:0.525;fill:#f4fa95;stroke:none"
           d="m 17.2,15.4 c 0,1.6 -1.3,2.9 -2.9,2.9 -1.6,0 -2.9,-1.3 -2.9,-2.9 0,-1.6 1.3,-2.9 2.9,-2.9 1.6,0 2.9,1.3 2.9,2.9 z"
           id="path16215"
           inkscape:connector-curvature="0" /><path
           style="opacity:0.6833;fill:#f7fcb7;stroke:none"
           d="m 16.8,15.4 c 0,1.4 -1.1,2.5 -2.5,2.5 -1.4,0 -2.5,-1.1 -2.5,-2.5 0,-1.4 1.1,-2.5 2.5,-2.5 1.4,0 2.5,1.1 2.5,2.5 l 0,0 z"
           id="path16217"
           inkscape:connector-curvature="0" /><path
           style="opacity:0.8417;fill:#fbfddb;stroke:none"
           d="m 16.4,15.4 c 0,1.2 -1,2.1 -2.1,2.1 -1.1,0 -2.1,-1 -2.1,-2.1 0,-1.1 1,-2.1 2.1,-2.1 1.1,0 2.1,1 2.1,2.1 z"
           id="path16219"
           inkscape:connector-curvature="0" /><path
           style="fill:#ffffff;stroke:none"
           d="m 16,15.4 c 0,1 -0.8,1.8 -1.8,1.8 -1,0 -1.8,-0.8 -1.8,-1.8 0,-1 0.8,-1.8 1.8,-1.8 1,0 1.8,0.8 1.8,1.8 l 0,0 z"
           id="path16221"
           inkscape:connector-curvature="0" /></g></g><path
       style="opacity:0.3;fill-rule:nonzero;stroke:none;stroke-width:1.2166667;stroke-miterlimit:4"
       d="m 25.015859,21.649044 8.681289,0 1.664904,0.475688 -2.854121,0 c 0,0 2.854121,0.237842 4.281184,2.021669 1.427059,1.664904 -1.664905,3.686575 -1.664905,3.686575 0,0 0,0 0,0 -0.118922,-0.356766 -0.832454,-3.210889 -2.259514,-4.400106 -1.070297,-0.951374 -2.259514,-1.189218 -2.259514,-1.189218 l -5.589323,0 0,-0.475686 0,-0.118922 z"
       id="path16223"
       inkscape:connector-curvature="0" /><path
       style="opacity:0.3;fill-rule:nonzero;stroke:none;stroke-width:1.2166667;stroke-miterlimit:4"
       d="m 30.724106,22.362574 -4.994715,0 9.275897,5.232557 -4.281182,-5.232557 0,0 z"
       id="path16225"
       inkscape:connector-curvature="0" /><path
       style="fill:#515151;fill-rule:nonzero;stroke:none;stroke-width:1.2166667;stroke-miterlimit:4"
       d="m 25.015859,21.767966 8.681289,0 1.30814,-0.832453 -2.854121,0 c 0,0 2.616276,-0.475686 2.973043,-3.448731 0.356763,-2.973043 -4.043341,-6.302851 -4.043341,-6.302851 0,0 0,0 0,0.118922 0.118921,0.71353 1.308138,5.708243 0.475688,7.610993 -0.356767,1.664901 -1.427062,2.021667 -1.427062,2.021667 l -5.470401,0 0.237844,0.832453 0.118921,0 z"
       id="path16227"
       inkscape:connector-curvature="0" /><path
       style="fill:#515151;fill-rule:nonzero;stroke:none;stroke-width:1.2166667;stroke-miterlimit:4"
       d="m 30.248418,20.459827 -4.994714,0 5.946086,-9.038054 -0.951372,9.038054 z"
       id="path16229"
       inkscape:connector-curvature="0" /></g><path
     style="color:#000000;display:inline;overflow:visible;visibility:visible;fill:none;fill-opacity:1;fill-rule:nonzero;stroke:#ffffff;stroke-width:0.66457313;stroke-linecap:butt;stroke-linejoin:miter;stroke-miterlimit:4;stroke-dashoffset:0;stroke-opacity:1;marker:none;marker-start:none;marker-mid:none;marker-end:none"
     d="m 2.4636541,4.3422258 26.8685339,0 c 0.09994,0 0.180396,0.080456 0.180396,0.1803957 l 0,15.7492885 c 0,0.628603 -4.720959,4.703417 -4.820898,4.703417 l -22.2280319,0 c -0.099939,0 -0.1803957,-0.08046 -0.1803957,-0.180396 l 0,-20.2723095 c 0,-0.099939 0.080457,-0.1803957 0.1803957,-0.1803957 z"
     id="rect7675"
     sodipodi:nodetypes="ccccccccc"
     inkscape:connector-curvature="0" /><rect
     style="color:#000000;display:inline;overflow:visible;visibility:visible;opacity:0.84659095;fill:none;fill-opacity:1;fill-rule:nonzero;stroke:#4f4f4f;stroke-width:0.66457331;stroke-linecap:butt;stroke-linejoin:miter;stroke-miterlimit:4;stroke-dasharray:none;stroke-dashoffset:0;stroke-opacity:1;marker:none;marker-start:none;marker-mid:none;marker-end:none"
     id="rect8163"
     width="23.301601"
     height="16.655869"
     x="4.2551899"
     y="6.3672748" /><path
     style="color:#000000;display:inline;overflow:visible;visibility:visible;fill:url(#linearGradient8169);fill-opacity:1;fill-rule:evenodd;stroke:url(#linearGradient8177);stroke-width:0.66457343;stroke-linecap:butt;stroke-linejoin:miter;stroke-miterlimit:4;stroke-dasharray:none;stroke-dashoffset:0;stroke-opacity:1;marker:none;marker-start:none;marker-mid:none;marker-end:none"
     d="m 23.997437,25.619141 c 1.349361,0.219241 6.372456,-3.01047 6.170171,-5.64744 -1.038902,1.610325 -3.162386,0.855131 -5.892957,0.960805 0,0 0.262752,4.354348 -0.277214,4.686635 z"
     id="path2210"
     sodipodi:nodetypes="cccc"
     inkscape:connector-curvature="0" /><path
     sodipodi:nodetypes="cccc"
     id="path2247"
     d="m 24.961359,24.162727 c 0.910318,-0.454454 2.942896,-1.426483 3.806429,-2.676548 -1.060721,0.451946 -1.959035,0.139225 -3.789618,0.126538 0,0 0.107874,2.034986 -0.01681,2.55001 z"
     style="color:#000000;display:inline;overflow:visible;visibility:visible;opacity:0.36931817;fill:none;fill-opacity:1;fill-rule:evenodd;stroke:url(#linearGradient8166);stroke-width:0.66457319;stroke-linecap:butt;stroke-linejoin:miter;stroke-miterlimit:4;stroke-dasharray:none;stroke-dashoffset:0;stroke-opacity:1;marker:none;marker-start:none;marker-mid:none;marker-end:none"
     inkscape:connector-curvature="0" /><path
     style="color:#000000;display:inline;overflow:visible;visibility:visible;opacity:0.30113639;fill:url(#radialGradient8161);fill-opacity:1;fill-rule:nonzero;stroke:none;stroke-width:1;stroke-linecap:butt;stroke-linejoin:miter;stroke-miterlimit:4;stroke-dasharray:none;stroke-dashoffset:0;stroke-opacity:1;marker:none;marker-start:none;marker-mid:none;marker-end:none"
     d="m 2.6352923,4.7058414 0,14.6621486 C 17.472608,19.958371 19.131419,10.687001 29.176688,10.687001 l 0,-5.9811596 -26.5413957,0 z"
     id="rect8150"
     sodipodi:nodetypes="ccccc"
     inkscape:connector-curvature="0" /></svg>