<?xml version="1.0" encoding="UTF-8" standalone="no"?>
<svg
   xmlns:dc="http://purl.org/dc/elements/1.1/"
   xmlns:cc="http://creativecommons.org/ns#"
   xmlns:rdf="http://www.w3.org/1999/02/22-rdf-syntax-ns#"
   xmlns:svg="http://www.w3.org/2000/svg"
   xmlns="http://www.w3.org/2000/svg"
   xmlns:sodipodi="http://sodipodi.sourceforge.net/DTD/sodipodi-0.dtd"
   xmlns:inkscape="http://www.inkscape.org/namespaces/inkscape"
   id="Layer_1"
   enable-background="new 0 0 100 100"
   height="512"
   viewBox="0 0 100 100"
   width="512"
   version="1.1"
   sodipodi:docname="sweets.svg"
   inkscape:version="0.92.5 (2060ec1f9f, 2020-04-08)">
  <metadata
     id="metadata19">
    <rdf:RDF>
      <cc:Work
         rdf:about="">
        <dc:format>image/svg+xml</dc:format>
        <dc:type
           rdf:resource="http://purl.org/dc/dcmitype/StillImage" />
      </cc:Work>
    </rdf:RDF>
  </metadata>
  <defs
     id="defs17" />
  <sodipodi:namedview
     pagecolor="#ffffff"
     bordercolor="#666666"
     borderopacity="1"
     objecttolerance="10"
     gridtolerance="10"
     guidetolerance="10"
     inkscape:pageopacity="0"
     inkscape:pageshadow="2"
     inkscape:window-width="1324"
     inkscape:window-height="1034"
     id="namedview15"
     showgrid="false"
     inkscape:zoom="0.4609375"
     inkscape:cx="256"
     inkscape:cy="256"
     inkscape:window-x="0"
     inkscape:window-y="0"
     inkscape:window-maximized="0"
     inkscape:current-layer="Layer_1" />
  <path
     d="m72.0878906 80.625.1777344.8388672c.0556641.2597656.2109375.4873047.4335938.6318359.1630859.1054688.3525391.1611328.5449219.1611328.0693359 0 .1386719-.0068359.2080078-.0214844 1.3076172-.2783203 1.9140625-.9648438 2.3564453-1.4658203.3818359-.4316406.6123047-.6923828 1.2744141-.8330078.6630859-.1416016.9775391.0039062 1.5.2431641.6074219.2783203 1.4404297.65625 2.7480469.3808594 1.3066406-.2783203 1.9130859-.9638672 2.3554688-1.4648438.3808594-.4316406.6113281-.6923828 1.2724609-.8330078.6611328-.1386719.9746094.0039062 1.4960938.2431641.6074219.2792969 1.4384766.6572266 2.7451172.3818359.5390625-.1152344.8837891-.6445312.7705078-1.1845703l-.1767578-.8398438c-.5009766-2.3701172-1.8925781-4.4023438-3.9189453-5.7236328-.6878662-.4484863-1.4232178-.788208-2.18396-1.032959 1.22229-.7512207 2.2781982-1.7628174 3.0823975-3.0041504 1.4257812-2.2001953 1.9072266-4.8232422 1.3564453-7.3896484l-2.2783203-10.5195312c-.869873-4.057251-4.1757812-6.9871826-8.0543213-7.5974121 2.2698975-2.1000366 3.4204102-5.3057861 2.7349854-8.5490723l-.1777344-.8388672c-.0556641-.2597656-.2109375-.4863281-.4335938-.6318359-.2216797-.1435547-.4921875-.1943359-.7529297-.1396484-1.3076172.2783203-1.9140625.9638672-2.3564453 1.4658203-.3808594.4316406-.6113281.6923828-1.2734375.8320312-.6621094.1435547-.9765625-.0039062-1.5-.2421875-.6083984-.2792969-1.4423828-.6591797-2.7480469-.3808594-1.3076172.2783203-1.9140625.9648438-2.3564453 1.4658203-.3808594.4316406-.6113281.6914062-1.2714844.8320312-.6582031.1386719-.9736328-.0029297-1.4960938-.2431641-.6074219-.2783203-1.4384766-.65625-2.7460938-.3828125-.5400391.1152344-.8847656.6455078-.7705078 1.1855469l.1777344.8398438c.5019531 2.3740234 1.8974609 4.4091797 3.9287109 5.7304688.6505127.4224243 1.3460693.7388916 2.0622559.9798584-1.0998535.7251587-2.0531006 1.6704102-2.7966309 2.807251-1.4375 2.1972656-1.9296875 4.8232422-1.3857422 7.3935547l2.2285156 10.5449219c.5410156 2.5615234 2.0458984 4.7558594 4.2373047 6.1806641 1.1960449.777832 2.5183105 1.2734375 3.8876953 1.4746094-2.3815918 2.0952147-3.6029053 5.3824462-2.9013672 8.705078zm-4.2412109-39.7626953c-1.4697266-.9560547-2.5117188-2.390625-2.9677734-4.0722656.1425781.0507812.2871094.1171875.453125.1933594.6074219.2783203 1.4404297.6582031 2.7460938.3828125 1.3066406-.2783203 1.9121094-.9648438 2.3544922-1.4658203.3818359-.4316406.6113281-.6923828 1.2734375-.8320312.6591797-.1455078.9765625.0029297 1.5.2421875.6074219.2783203 1.4404297.6582031 2.7480469.3808594 1.3076172-.2783203 1.9140625-.9638672 2.3564453-1.4658203.1220703-.1376953.2285156-.2578125.3378906-.3623047.5605469 3.6738281-1.8378906 7.2021484-5.5078125 7.9814453-1.8359376.3916014-3.7158204.0429686-5.2939454-.982422zm-.1513672 6.5585937c1.1396484-1.7421875 2.8876953-2.9335938 4.921875-3.3535156l2.1259766-.4394531c.5234375-.1083984 1.0449219-.1601562 1.5595703-.1601562 3.3312988 0 6.364624 2.1779175 7.3963623 5.4135132l-17.229126 3.6616821c-.2009277-1.7966309.2236328-3.5908814 1.2253418-5.1220704zm-.8483887 7.0874024 17.3125-3.6793823 1.8031006 8.3257446-17.354126 3.6882324zm5.345459 14.2602539c-1.4688721-.9545898-2.5435791-2.3485107-3.1052246-3.9819946l17.2282715-3.661438c.1464844 1.7160645-.269043 3.4221802-1.2207031 4.8905029-1.1298828 1.7441406-2.8691406 2.9423828-4.8974609 3.3730469l-2.1767578.4619141c-2.0244141.4296874-4.0927735.0468749-5.8281251-1.0820313zm7.288086 3.0576172c.4902344-.1044922.984375-.15625 1.4746094-.15625 1.3486328 0 2.6699219.390625 3.828125 1.1455078 1.4648438.9550781 2.5039062 2.3886719 2.9589844 4.0654297-.1425781-.0507812-.2880859-.1171875-.4541016-.1933594-.6064453-.2783203-1.4365234-.6552734-2.7451172-.3818359-1.3076172.2783203-1.9130859.9648438-2.3554688 1.4658203-.3818359.4316406-.6113281.6923828-1.2724609.8320312-.6611328.1455078-.9765625-.0039062-1.5-.2421875-.6074219-.2792969-1.4404297-.6572266-2.7480469-.3818359-1.3076172.2783203-1.9140625.9648438-2.3564453 1.4658203-.1220703.1376953-.2285156.2587891-.3388672.3632812-.5585938-3.6738281 1.8398437-7.2031249 5.5087891-7.9824218z"
     id="path2"
     style="fill:#ececec;fill-opacity:1" />
  <path
     d="m49.3059082 57.2073364c.395752.0531616.795166.0875854 1.1989746.0875854.3486328 0 .7001953-.0195312 1.0517578-.0605469 2.4023438-.2763672 4.5527344-1.4746094 6.0556641-3.3740234l.5322266-.671875c.3417969-.4326172.2695312-1.0605469-.1621094-1.4033203-1.046875-.8330078-1.9609375-.8642578-2.6289062-.8867188-.5742188-.0195312-.9208984-.03125-1.4511719-.453125-.53125-.4228516-.6220703-.7597656-.7714844-1.3173828-.1738281-.6455078-.4111328-1.5302734-1.4570312-2.3623047-1.046875-.8330078-1.9609375-.8632812-2.6289062-.8857422-.5742188-.0195312-.9199219-.03125-1.4501953-.4521484-.5292969-.421875-.6191406-.7578125-.7685547-1.3144531-.1728516-.6455078-.4091797-1.5302734-1.4541016-2.3613281-.2080078-.1650391-.4726562-.2441406-.7373047-.2109375-.2636719.0302734-.5048828.1640625-.6699219.3720703l-.5322266.6728516c-2.0606689 2.6047363-2.4516602 6.0010376-1.340332 8.9005737-1.2584229-.3861084-2.5925293-.5183105-3.9399414-.3654175-2.6025391.2919922-4.9326172 1.5859375-6.5595703 3.6435547l-6.6806641 8.4443359c-2.6030273 3.2904053-2.7392578 7.7521973-.6866455 11.1516113-.8149414-.1325684-1.6522217-.1591797-2.4959717-.060791-2.4033203.2763672-4.5537109 1.4755859-6.0566406 3.375l-.53125.671875c-.3417969.4326172-.2695312 1.0595703.1611328 1.4023438 1.0478516.8330078 1.9619141.8642578 2.6289062.8867188.5751953.0195312.921875.03125 1.4511719.453125.53125.4228516.6220703.7597656.7714844 1.3173828.1738281.6455078.4111328 1.5302734 1.4570312 2.3623047 1.046875.8330078 1.9609375.8632812 2.6289062.8857422.5742188.0195312.9199219.03125 1.4501953.4521484.5292969.421875.6191406.7578125.7685547 1.3144531.1728516.6455078.4101562 1.5302734 1.4560547 2.3613281.1777344.1416016.397461.2177735.6220704.2177735.0380859 0 .0761719-.0019531.1142578-.0068359.2646484-.0302734.5048828-.1640625.6699219-.3730469l.53125-.671875c2.0863037-2.637207 2.463501-6.0864258 1.3006592-9.0092773 1.0015869.3430176 2.055542.5219727 3.1290283.5219727.3808594 0 .7646484-.0224609 1.1484375-.0673828 2.5976562-.3027344 4.9189453-1.6044922 6.5380859-3.6650391l6.6308594-8.4658203c2.5581054-3.2561036 2.7033691-7.6729127.7062988-11.055359zm-4.5510254-13.0501098c.0507812.1425781.0917969.296875.1396484.4736328.1728516.6455078.4101562 1.5302734 1.4550781 2.3613281 1.046875.8330078 1.9609375.8632812 2.6289062.8857422.5742188.0195312.9199219.03125 1.4492188.4521484.53125.4228516.6220703.7597656.7714844 1.3173828.1738281.6455078.4111328 1.5302734 1.4580078 2.3623047 1.046875.8330078 1.9609375.8642578 2.6289062.8867188.1855469.0068359.3476562.0117188.4990234.03125-1.1523438 1.3007812-2.7207031 2.1201172-4.4580078 2.3203125-1.8671875.2138672-3.7099609-.3115234-5.1835938-1.484375-2.9394529-2.3378907-3.5205076-6.5683594-1.3886717-9.6064453zm-16.2236328 43.2197265c-.0517578-.1425781-.0927734-.296875-.140625-.4736328-.1728516-.6455078-.4101562-1.5302734-1.4550781-2.3613281-1.046875-.8330078-1.9609375-.8632812-2.6289062-.8857422-.5742188-.0195312-.9199219-.03125-1.4492188-.4521484-.53125-.4228516-.6220703-.7597656-.7714844-1.3173828-.1738281-.6455078-.4111328-1.5302734-1.4570312-2.3623047-1.0478516-.8330079-1.9619141-.8642579-2.6289063-.8867188-.1865234-.0068359-.3476562-.0126953-.5-.03125 1.1523438-1.3007812 2.7207031-2.1201172 4.4580078-2.3203125 1.8759766-.2148438 3.7109375.3115234 5.1845703 1.484375 2.9384766 2.3378906 3.5195313 6.5673828 1.3886719 9.6064453zm6.6679688-8.9697265c-2.0625.2441406-4.0927734-.3388672-5.7197266-1.6337891l-1.7421875-1.3847656c-3.0949707-2.4631348-3.8076172-6.8299561-1.8084717-10.1329346l13.7972412 10.9764404c-1.2231445 1.2062989-2.7960205 1.9726563-4.5268554 2.1750489zm5.8165283-3.7049561-13.8990479-11.057312 5.2792969-6.6729126 13.8664551 11.0314941zm6.4505615-8.296875-13.8000488-10.9785767c1.2503662-1.2993774 2.8969727-2.1147461 4.7097168-2.3184204.2939453-.0332031.5878906-.0498047.8789062-.0498047 1.7568359 0 3.4492188.5947266 4.8398438 1.7138672l1.6933594 1.3623047c3.1101074 2.5025635 3.7868652 6.9674073 1.6782226 10.2706299z"
     id="path4"
     style="fill:#ececec;fill-opacity:1" />
  <path
     d="m59.3408203 27.3417969c.5380859-.3945312 1.2753906-.9345703 1.6728516-2.2119141.1640625-.5273438-.1308594-1.0869141-.6572266-1.2519531l-.8173828-.2539062c-2.3056641-.7216797-4.7519531-.4990234-6.8886719.6230469-.6896973.3621216-1.3132324.8114014-1.8759766 1.321106-.095459-1.3182983-.454834-2.6156616-1.0849609-3.8230591-1.2099609-2.3212891-3.2509766-4.0292969-5.7460938-4.8085938l-10.2617188-3.2060547c-2.4853516-.7773438-5.125-.5380859-7.4306641.6728516-1.270752.666687-2.3481445 1.5910645-3.197876 2.6968994-.6564941-3.1104736-2.9211426-5.7887573-6.1575928-6.7994385l-.8164062-.2548828c-.2539062-.0820312-.5283203-.0546875-.7626953.0683594-.2353516.1240234-.4111328.3349609-.4902344.5888672-.3974609 1.2783203-.0966797 2.1425781.1220703 2.7744141.1894531.5458984.3037109.8759766.1015625 1.5253906-.2011719.6494141-.4824219.8554688-.9462891 1.1962891-.5380859.3955078-1.2753906.9365234-1.6728516 2.2138672-.3964844 1.2773438-.0966797 2.1425781.1230469 2.7734375.1894531.5458984.3037109.875.1015625 1.5234375-.2011719.6474609-.4814453.8535156-.9453125 1.1933594-.5380859.3945312-1.2753906.9345703-1.6728516 2.2119141-.1640625.5273438.1308594 1.0869141.6572266 1.2519531l.8173828.2539062c.8886719.2783203 1.7978516.4160156 2.703125.4160156 1.4423828 0 2.8720703-.3496094 4.1855469-1.0390625.7277832-.3821411 1.3841553-.8592529 1.9700928-1.4050903.0567627 1.4415283.4237061 2.8644409 1.1158447 4.1785278 1.21875 2.3125 3.2626953 4.0107422 5.7578125 4.78125l10.2666016 3.1513672c.9472656.2929688 1.9072266.4316406 2.8525391.4316406 2.9995117 0 5.8476562-1.4053955 7.6933594-3.7536621.7199707 3.0080566 2.9453125 5.5775146 6.0986328 6.5622559l.8164062.2548828c.0976562.03125.1972656.0458984.2978516.0458984.1601562 0 .3203125-.0390625.4648438-.1142578.2353516-.1240234.4111328-.3349609.4902344-.5888672.3974609-1.2783203.0966797-2.1425781-.1220703-2.7744141-.1894531-.5458984-.3037109-.875-.1015625-1.5244141.2011719-.6494141.4814453-.8554688.9462891-1.1962891.5380859-.3955078 1.2753906-.9365234 1.6728516-2.2148438.3964844-1.2773438.0966797-2.1425781-.1230469-2.7734375-.1894531-.5458984-.3037109-.875-.1015625-1.5234375.2011719-.6474609.4814453-.8535156.9453125-1.1933593zm-38.4082031-6.2763672c-.5615234 1.8066406-1.7900391 3.2841797-3.4609375 4.1611328-1.546875.8115234-3.2988281 1.0185547-4.9736328.5957031.1142578-.1005859.2451172-.1962891.3945312-.3056641.5380859-.3955078 1.2763672-.9355469 1.6728516-2.2128906s.0966797-2.1416016-.1230469-2.7724609c-.1894531-.5458984-.3037109-.875-.1015625-1.5244141.2011719-.6484375.4814453-.8544922.9462891-1.1953125.5380859-.3955078 1.2753906-.9365234 1.6728515-2.2148437s.0966797-2.1425781-.1220703-2.7744141c-.0615234-.1767578-.1142578-.3300781-.1523438-.4794922 3.4677735 1.3066407 5.3632813 5.1308594 4.2470704 8.7226563zm5.967041 11.2134399c-1.5559082-.7081909-2.831665-1.8989868-3.6437988-3.4390259-.9726562-1.8466797-1.1669922-3.9619141-.5478516-5.9550781l.6611328-2.1289062c.6181641-1.9892578 1.9716797-3.6162109 3.8115234-4.5820312 1.1259766-.5908203 2.3515625-.890625 3.5878906-.890625.456665 0 .9138184.0539551 1.3690186.1361694zm10.010498 3.1489868-8.1199951-2.4921875 5.2785645-16.9899292 8.1074219 2.532959zm11.5263672-6.7921142-.6572266 2.0751953c-1.2077637 3.8104858-5.1149902 6.0480957-8.9456787 5.2681274l5.2406006-16.8675537c1.6520996.7006836 2.9992676 1.942627 3.8417969 3.5584106.9667969 1.8535157 1.1513672 3.9716798.5205078 5.9658204zm9.7216797-2.9072266c-.5380859.3955078-1.2763672.9355469-1.6728516 2.2128906s-.0966797 2.1416016.1230469 2.7724609c.1894531.5458984.3037109.875.1015625 1.5244141-.2011719.6494141-.4814453.8554688-.9462891 1.1962891-.5380859.3955078-1.2753906.9365234-1.6728516 2.2148438-.3974609 1.2773438-.0966797 2.1425781.1220703 2.7734375.0615234.1767578.1142578.3300781.1523438.4794922-3.4677734-1.3066406-5.3632812-5.1308594-4.2470703-8.7226562.5615234-1.8066406 1.7900391-3.2841797 3.4609375-4.1611328 1.0234375-.5371094 2.1367188-.8095703 3.2587891-.8095703.5732422 0 1.1484375.0712891 1.7148438.2138672-.1142578.1005858-.2451172.1962889-.3945313.3056639z"
     id="path6"
     style="fill:#ececec;fill-opacity:1" />
  <path
     d="m79.2910156 24.8017578c4.0810547 0 7.4013672-3.3203125 7.4013672-7.4013672s-3.3203125-7.4003906-7.4013672-7.4003906-7.4003906 3.3193359-7.4003906 7.4003906 3.3193359 7.4013672 7.4003906 7.4013672zm0-12.8017578c2.9785156 0 5.4013672 2.4228516 5.4013672 5.4003906 0 2.9785156-2.4228516 5.4013672-5.4013672 5.4013672-2.9775391 0-5.4003906-2.4228516-5.4003906-5.4013672 0-2.977539 2.4228516-5.4003906 5.4003906-5.4003906z"
     id="path8"
     style="fill:#ececec;fill-opacity:1" />
  <path
     d="m17.3935547 39.2451172c-4.0810547 0-7.4013672 3.3203125-7.4013672 7.4013672s3.3203125 7.4003906 7.4013672 7.4003906 7.4003906-3.3193359 7.4003906-7.4003906-3.3193359-7.4013672-7.4003906-7.4013672zm0 12.8017578c-2.9785156 0-5.4013672-2.4228516-5.4013672-5.4003906 0-2.9785156 2.4228516-5.4013672 5.4013672-5.4013672 2.9775391 0 5.4003906 2.4228516 5.4003906 5.4013672 0 2.977539-2.4228515 5.4003906-5.4003906 5.4003906z"
     id="path10"
     style="fill:#ececec;fill-opacity:1" />
  <path
     d="m64.6279297 82.5996094c0-4.0810547-3.3193359-7.4013672-7.4003906-7.4013672s-7.4013672 3.3203125-7.4013672 7.4013672 3.3203125 7.4003906 7.4013672 7.4003906 7.4003906-3.3193359 7.4003906-7.4003906zm-12.8017578 0c0-2.9785156 2.4228516-5.4013672 5.4013672-5.4013672 2.9775391 0 5.4003906 2.4228516 5.4003906 5.4013672 0 2.977539-2.4228516 5.4003906-5.4003906 5.4003906-2.9785157 0-5.4013672-2.4228516-5.4013672-5.4003906z"
     id="path12"
     style="fill:#ececec;fill-opacity:1" />
</svg>
