<?xml version="1.0" encoding="UTF-8" standalone="no"?>
<!-- Created with Inkscape (http://www.inkscape.org/) -->

<svg
   xmlns:dc="http://purl.org/dc/elements/1.1/"
   xmlns:cc="http://creativecommons.org/ns#"
   xmlns:rdf="http://www.w3.org/1999/02/22-rdf-syntax-ns#"
   xmlns:svg="http://www.w3.org/2000/svg"
   xmlns="http://www.w3.org/2000/svg"
   xmlns:xlink="http://www.w3.org/1999/xlink"
   xmlns:sodipodi="http://sodipodi.sourceforge.net/DTD/sodipodi-0.dtd"
   xmlns:inkscape="http://www.inkscape.org/namespaces/inkscape"
   width="167.16084"
   height="48.822033"
   id="svg2"
   sodipodi:version="0.32"
   inkscape:version="0.92.5 (2060ec1f9f, 2020-04-08)"
   sodipodi:docname="open3A.svg"
   inkscape:output_extension="org.inkscape.output.svg.inkscape"
   version="1.0"
   inkscape:export-filename="/home/nemiah/Arbeitsfläche/open3AGmbHLogo.png"
   inkscape:export-xdpi="143.5743"
   inkscape:export-ydpi="143.5743">
  <defs
     id="defs4">
    <linearGradient
       inkscape:collect="always"
       id="linearGradient3246">
      <stop
         style="stop-color:#ffffff;stop-opacity:1;"
         offset="0"
         id="stop3248" />
      <stop
         style="stop-color:#ffffff;stop-opacity:0;"
         offset="1"
         id="stop3250" />
    </linearGradient>
    <inkscape:perspective
       sodipodi:type="inkscape:persp3d"
       inkscape:vp_x="0 : 526.18109 : 1"
       inkscape:vp_y="0 : 1000 : 0"
       inkscape:vp_z="744.09448 : 526.18109 : 1"
       inkscape:persp3d-origin="372.04724 : 350.78739 : 1"
       id="perspective10" />
    <inkscape:perspective
       id="perspective9"
       inkscape:persp3d-origin="372.04724 : 350.78739 : 1"
       inkscape:vp_z="744.09448 : 526.18109 : 1"
       inkscape:vp_y="0 : 1000 : 0"
       inkscape:vp_x="0 : 526.18109 : 1"
       sodipodi:type="inkscape:persp3d" />
    <linearGradient
       inkscape:collect="always"
       xlink:href="#linearGradient3246"
       id="linearGradient3252"
       x1="-125.25"
       y1="89.362183"
       x2="-125.25"
       y2="133.56696"
       gradientUnits="userSpaceOnUse"
       gradientTransform="matrix(0.4192635,0,0,1,-59.487252,0)" />
    <linearGradient
       inkscape:collect="always"
       xlink:href="#linearGradient3246"
       id="linearGradient3260"
       gradientUnits="userSpaceOnUse"
       gradientTransform="matrix(0.4192635,0,0,1,-59.487252,0)"
       x1="-125.25"
       y1="82.362183"
       x2="-125.25"
       y2="118.06696" />
    <linearGradient
       inkscape:collect="always"
       xlink:href="#linearGradient3246"
       id="linearGradient3266"
       gradientUnits="userSpaceOnUse"
       gradientTransform="matrix(0.3769525,0,0,0.8990826,296.98394,-285.08372)"
       x1="-125.25"
       y1="82.362183"
       x2="-125.25"
       y2="118.06696" />
    <mask
       maskUnits="userSpaceOnUse"
       id="mask3262">
      <rect
         style="opacity:1;fill:url(#linearGradient3266);fill-opacity:1;stroke:none;stroke-width:1;stroke-miterlimit:4;stroke-dasharray:none;stroke-opacity:1"
         id="rect3264"
         width="66.532112"
         height="62.036697"
         x="216.50458"
         y="-204.73973"
         rx="0.057132773"
         ry="0.053892482"
         transform="scale(1,-1)" />
    </mask>
    <inkscape:perspective
       id="perspective2514"
       inkscape:persp3d-origin="372.04724 : 350.78739 : 1"
       inkscape:vp_z="744.09448 : 526.18109 : 1"
       inkscape:vp_y="0 : 1000 : 0"
       inkscape:vp_x="0 : 526.18109 : 1"
       sodipodi:type="inkscape:persp3d" />
  </defs>
  <sodipodi:namedview
     id="base"
     pagecolor="#ffffff"
     bordercolor="#666666"
     borderopacity="1.0"
     inkscape:pageopacity="0"
     inkscape:pageshadow="2"
     inkscape:zoom="2"
     inkscape:cx="-110.92831"
     inkscape:cy="-26.112531"
     inkscape:document-units="px"
     inkscape:current-layer="text4225"
     showgrid="false"
     inkscape:window-width="2059"
     inkscape:window-height="866"
     inkscape:window-x="424"
     inkscape:window-y="377"
     inkscape:window-maximized="0"
     fit-margin-left="5"
     fit-margin-top="5"
     fit-margin-right="5"
     fit-margin-bottom="5" />
  <metadata
     id="metadata7">
    <rdf:RDF>
      <cc:Work
         rdf:about="">
        <dc:format>image/svg+xml</dc:format>
        <dc:type
           rdf:resource="http://purl.org/dc/dcmitype/StillImage" />
        <dc:title />
      </cc:Work>
    </rdf:RDF>
  </metadata>
  <g
     inkscape:label="Ebene 1"
     inkscape:groupmode="layer"
     id="layer1"
     transform="translate(-41.659101,8.191865)">
    <g
       aria-label="open"
       style="font-style:normal;font-variant:normal;font-weight:bold;font-stretch:normal;line-height:0%;font-family:Ubuntu;-inkscape-font-specification:'Ubuntu Bold';letter-spacing:0px;word-spacing:0px;fill:#7ab300;fill-opacity:0.98431373;stroke:none;stroke-width:1px;stroke-linecap:butt;stroke-linejoin:miter;stroke-opacity:1"
       id="text4225">
      <path
         d="m 69.109874,16.132302 q 0,2.692356 -0.781651,4.950461 -0.781652,2.21468 -2.258105,3.821408 -1.476453,1.563304 -3.560858,2.431806 -2.040979,0.868501 -4.60306,0.868501 -2.518655,0 -4.60306,-0.868501 -2.040979,-0.868502 -3.517433,-2.431806 -1.476453,-1.606728 -2.30153,-3.821408 -0.825076,-2.258105 -0.825076,-4.950461 0,-2.692356 0.825076,-4.907036 0.868502,-2.2146794 2.344955,-3.7779828 1.519879,-1.5633034 3.560858,-2.4318053 2.084405,-0.8685019 4.51621,-0.8685019 2.47523,0 4.51621,0.8685019 2.084404,0.8685019 3.560858,2.4318053 1.476453,1.5633034 2.30153,3.7779828 0.825076,2.21468 0.825076,4.907036 z m -6.600614,0 q 0,-2.996331 -1.215903,-4.68991 Q 60.12088,9.7053881 57.9062,9.7053881 q -2.21468,0 -3.430582,1.7370039 -1.215903,1.693579 -1.215903,4.68991 0,2.996332 1.215903,4.776761 1.215902,1.737003 3.430582,1.737003 2.21468,0 3.387157,-1.737003 1.215903,-1.780429 1.215903,-4.776761 z"
         style="font-size:43.4250946px;line-height:1.25"
         id="path4535" />
      <path
         d="m 88.73795,16.349428 q 0,-2.996332 -1.346178,-4.776761 -1.346178,-1.8238538 -3.995109,-1.8238538 -0.868502,0 -1.606728,0.08685 -0.738227,0.043425 -1.215903,0.1302753 V 21.647289 q 0.607951,0.390826 1.563303,0.651377 0.998778,0.26055 1.997555,0.26055 4.60306,0 4.60306,-6.209788 z m 6.600614,-0.173701 q 0,2.648931 -0.651376,4.820186 -0.651377,2.171254 -1.910704,3.734558 -1.259328,1.563303 -3.126607,2.431805 -1.867279,0.868502 -4.299085,0.868502 -1.346178,0 -2.518655,-0.260551 -1.172478,-0.26055 -2.258105,-0.738226 V 35.63017 H 74.103693 V 5.536579 Q 74.972195,5.2760285 76.101247,5.058903 77.2303,4.7983524 78.446202,4.6246521 79.70553,4.4509517 80.964858,4.3641015 q 1.302753,-0.1302753 2.47523,-0.1302753 2.822631,0 5.037311,0.8685019 2.21468,0.8250768 3.734558,2.3883802 1.519879,1.5198783 2.30153,3.7345577 0.825077,2.21468 0.825077,4.950461 z"
         style="font-size:43.4250946px;line-height:1.25"
         id="path4537" />
      <path
         d="m 99.246743,16.349428 q 0,-3.039757 0.911927,-5.297862 0.95535,-2.30153 2.47523,-3.8214083 1.51988,-1.5198783 3.47401,-2.30153 1.99755,-0.7816517 4.08196,-0.7816517 4.86361,0 7.68624,2.9963315 2.82263,2.9529065 2.82263,8.7284445 0,0.564526 -0.0434,1.259327 -0.0434,0.651377 -0.0868,1.172478 h -14.67768 q 0.21713,1.997554 1.86728,3.170032 1.65016,1.172477 4.42936,1.172477 1.78043,0 3.47401,-0.303975 1.737,-0.347401 2.82263,-0.825077 l 0.8685,5.254436 q -0.5211,0.260551 -1.3896,0.521101 -0.8685,0.260551 -1.95413,0.434251 -1.0422,0.217126 -2.25811,0.347401 -1.2159,0.130275 -2.4318,0.130275 -3.08318,0 -5.38471,-0.911927 -2.25811,-0.911927 -3.77799,-2.47523 -1.47645,-1.606728 -2.214675,-3.777983 -0.694802,-2.171255 -0.694802,-4.68991 z m 15.198787,-2.475231 q -0.0434,-0.825077 -0.30398,-1.606728 -0.21712,-0.781652 -0.73823,-1.389603 -0.47767,-0.607952 -1.25932,-0.9987775 -0.73823,-0.3908259 -1.86728,-0.3908259 -1.08563,0 -1.86728,0.3908259 -0.78165,0.3474005 -1.30275,0.9553525 -0.52111,0.607951 -0.82508,1.433028 -0.26055,0.781651 -0.39083,1.606728 z"
         style="font-size:43.4250946px;line-height:1.25"
         id="path4539" />
      <path
         d="m 125.69261,5.536579 q 1.65016,-0.477676 4.25566,-0.8685019 2.60551,-0.4342509 5.47156,-0.4342509 2.90948,0 4.82019,0.7816517 1.95413,0.7382266 3.08318,2.1278296 1.12905,1.3896031 1.60673,3.3003075 0.47767,1.910704 0.47767,4.255659 v 12.897253 h -6.47033 V 15.480926 q 0,-3.126607 -0.82508,-4.42936 -0.82508,-1.3027528 -3.08318,-1.3027528 -0.6948,0 -1.47646,0.08685 -0.78165,0.043425 -1.3896,0.1302753 V 27.596527 h -6.47034 z"
         style="font-size:43.4250946px;line-height:1.25"
         id="path4541" />
    </g>
    <g
       aria-label="3A"
       style="font-style:normal;font-variant:normal;font-weight:bold;font-stretch:normal;line-height:0%;font-family:Ubuntu;-inkscape-font-specification:'Ubuntu Bold';letter-spacing:0px;word-spacing:0px;fill:#405c00;fill-opacity:0.98431373;stroke:none;stroke-width:1px;stroke-linecap:butt;stroke-linejoin:miter;stroke-opacity:1"
       id="text4146">
      <path
         d="m 158.16456,28.247904 q -1.17247,0 -2.47523,-0.173701 -1.30275,-0.130275 -2.51865,-0.390826 -1.21591,-0.26055 -2.21468,-0.564526 -0.99878,-0.303976 -1.56331,-0.564526 l 1.25933,-5.384712 q 1.12905,0.477676 2.86606,1.042202 1.78043,0.521102 4.38593,0.521102 2.99633,0 4.38594,-1.129053 1.3896,-1.129052 1.3896,-3.039757 0,-1.172477 -0.5211,-1.954129 -0.47768,-0.825077 -1.34618,-1.302753 -0.8685,-0.521101 -2.0844,-0.694801 -1.17248,-0.217126 -2.51866,-0.217126 h -2.51865 V 9.184287 h 2.86605 q 0.95535,0 1.82386,-0.1737004 0.91192,-0.1737004 1.60672,-0.5645262 0.69481,-0.434251 1.08563,-1.1290525 0.43425,-0.7382266 0.43425,-1.823854 0,-0.8250768 -0.3474,-1.4330281 -0.3474,-0.6079513 -0.91193,-0.9987772 -0.5211,-0.3908258 -1.25932,-0.5645262 -0.6948,-0.2171255 -1.43303,-0.2171255 -1.86728,0 -3.47401,0.5645263 -1.5633,0.5645262 -2.86606,1.389603 l -2.30153,-4.73333531 q 0.69481,-0.43425095 1.60673,-0.91192699 0.95536,-0.477676 2.08441,-0.8685019 1.12905,-0.3908258 2.38838,-0.6513764 1.30275,-0.2605506 2.73578,-0.2605506 2.64893,0 4.55963,0.6513764 1.95413,0.6079514 3.21346,1.78042892 1.25933,1.12905246 1.86728,2.69235588 0.60795,1.5198783 0.60795,3.3437323 0,1.7804289 -0.99878,3.4740075 -0.99877,1.650154 -2.69235,2.518656 2.34495,0.955352 3.60428,2.866056 1.30275,1.867279 1.30275,4.51621 0,2.084404 -0.6948,3.864833 -0.6948,1.737004 -2.17125,3.039757 -1.47646,1.259327 -3.77799,1.997554 -2.2581,0.694802 -5.38471,0.694802 z"
         style="font-size:43.4250946px;line-height:1.25"
         id="path4530" />
      <path
         d="m 196.5523,27.596527 q -0.47768,-1.563303 -1.08563,-3.213457 -0.56453,-1.650153 -1.12905,-3.300307 h -11.72478 q -0.56452,1.650154 -1.17247,3.300307 -0.56453,1.650154 -1.04221,3.213457 h -7.03486 q 1.69358,-4.86361 3.21345,-8.988994 1.51988,-4.125384 2.95291,-7.773092 1.47645,-3.6477084 2.86606,-6.9045905 1.43303,-3.30030715 2.9529,-6.426914 h 6.47034 q 1.47646,3.12660685 2.90948,6.426914 1.43303,3.2568821 2.86606,6.9045905 1.47645,3.647708 2.99633,7.773092 1.51988,4.125384 3.21346,8.988994 z M 188.43181,4.3206764 q -0.21713,0.6513764 -0.65138,1.7804289 -0.43425,1.1290524 -0.99878,2.6055056 -0.56452,1.4764531 -1.25933,3.2568821 -0.65137,1.780429 -1.34617,3.734558 h 8.55474 q -0.6948,-1.954129 -1.34618,-3.734558 -0.65137,-1.780429 -1.25933,-3.2568821 -0.56452,-1.4764532 -0.99877,-2.6055056 -0.43425,-1.1290525 -0.6948,-1.7804289 z"
         style="font-size:43.4250946px;line-height:1.25"
         id="path4532" />
    </g>
  </g>
</svg>
